<svg width="500" height="500" viewBox="0 0 500 500" fill="none" xmlns="http://www.w3.org/2000/svg">
<circle cx="252" cy="249" r="164" fill="white"/>
<path d="M166.99 241.13L251.24 97.1699L357.52 274.9C357.52 274.9 238.79 279.88 252.3 152.26C239.81 181.05 225.28 181.85 225.28 181.85C225.28 181.85 207.6 227.63 166.99 241.13Z" fill="#3B4CDC"/>
<path d="M165.04 245.71C165.04 245.71 209.3 232.78 226.89 185.15C241.11 178.93 248.75 166.49 249.28 163.29C249.28 163.29 249.34 268.18 144.11 277.04C157.44 257.31 165.04 245.71 165.04 245.71Z" fill="#5B5D72"/>
<path d="M293.82 310.12C307.148 310.12 317.94 320.922 317.94 334.24C317.94 347.558 307.138 358.36 293.82 358.36C280.502 358.36 269.7 347.558 269.7 334.24V291.54C269.7 287.931 272.623 285 276.24 285C279.858 285 282.78 287.922 282.78 291.54V334.25C282.78 340.352 287.728 345.3 293.83 345.3C299.932 345.3 304.88 340.352 304.88 334.25C304.88 328.148 299.932 323.2 293.83 323.2C290.222 323.2 287.29 320.277 287.29 316.66C287.29 313.041 290.204 310.12 293.82 310.12Z" stroke="#5839F0" stroke-width="2"/>
<path d="M338.739 342.033L338.751 342.045L338.763 342.057C340.763 344.057 342.768 345.117 344.681 345.529C346.591 345.94 348.335 345.69 349.793 345.188C351.245 344.688 352.425 343.935 353.237 343.314C353.645 343.003 353.965 342.721 354.187 342.513C354.297 342.41 354.384 342.324 354.444 342.263C354.474 342.232 354.498 342.207 354.515 342.189L354.528 342.176C357.079 339.637 361.217 339.641 363.763 342.187C366.312 344.736 366.312 348.883 363.763 351.433L363.71 351.486L363.667 351.544L363.666 351.545L363.666 351.545L363.666 351.546L363.665 351.546L363.66 351.553C363.653 351.562 363.641 351.577 363.624 351.599C363.59 351.642 363.535 351.709 363.459 351.798C363.306 351.975 363.069 352.236 362.743 352.553C362.092 353.187 361.089 354.045 359.706 354.906C356.948 356.624 352.657 358.37 346.58 358.37C333.253 358.37 322.46 347.568 322.46 334.25V309.13C322.46 295.802 333.262 285.01 346.58 285.01C359.907 285.01 370.7 295.812 370.7 309.13C370.7 322.447 359.898 333.25 346.58 333.25C342.971 333.25 340.04 330.327 340.04 326.71C340.04 323.092 342.962 320.17 346.58 320.17C352.682 320.17 357.63 315.222 357.63 309.12C357.63 303.017 352.682 298.07 346.58 298.07C340.478 298.07 335.53 303.018 335.53 309.12V334.24C335.53 337.042 336.575 339.605 338.29 341.551L338.299 341.562L338.309 341.573L338.739 342.033Z" stroke="#5839F0" stroke-width="2"/>
<path d="M247.59 309.12C247.59 312.729 244.667 315.66 241.05 315.66C237.432 315.66 234.51 312.738 234.51 309.12C234.51 303.018 229.562 298.07 223.46 298.07C217.358 298.07 212.41 303.018 212.41 309.12V351.83C212.41 355.439 209.487 358.37 205.87 358.37C202.252 358.37 199.33 355.448 199.33 351.83V309.12C199.33 295.793 210.132 285 223.45 285C236.769 285 247.59 295.803 247.59 309.12Z" stroke="#5839F0" stroke-width="2"/>
<path d="M146.59 324.2V323.2H145.59H135.54C131.931 323.2 129 320.277 129 316.66C129 313.042 131.922 310.12 135.54 310.12H145.59H146.59V309.12V291.54C146.59 287.931 149.513 285 153.13 285C156.748 285 159.67 287.922 159.67 291.54V309.13V310.13H160.67H188.31C191.919 310.13 194.85 313.053 194.85 316.67C194.85 320.288 191.928 323.21 188.31 323.21H160.67H159.67V324.21V334.26C159.67 340.362 164.618 345.31 170.72 345.31C176.822 345.31 181.77 340.362 181.77 334.26C181.77 330.651 184.693 327.72 188.31 327.72L188.312 327.72C191.905 327.711 194.83 330.639 194.83 334.25C194.83 347.577 184.028 358.37 170.71 358.37C157.392 358.37 146.59 347.568 146.59 334.25V324.2Z" stroke="#5839F0" stroke-width="2"/>
<path d="M216.93 334.25C216.93 330.641 219.853 327.71 223.47 327.71C227.087 327.71 230.01 330.632 230.01 334.25C230.01 340.352 234.957 345.3 241.06 345.3C247.162 345.3 252.11 340.352 252.11 334.25V309.13C252.11 305.521 255.033 302.59 258.65 302.59C262.258 302.59 265.19 305.513 265.19 309.13V334.25C265.19 347.577 254.388 358.37 241.07 358.37C227.751 358.37 216.93 347.566 216.93 334.25Z" stroke="#5839F0" stroke-width="2"/>
<path d="M265.18 291.54C265.18 295.152 262.252 298.08 258.64 298.08C255.028 298.08 252.1 295.152 252.1 291.54C252.1 287.928 255.028 285 258.64 285C262.252 285 265.18 287.928 265.18 291.54Z" stroke="#5839F0" stroke-width="2"/>
</svg>
