<svg width="17" height="16" viewBox="0 0 17 16" fill="none" xmlns="http://www.w3.org/2000/svg">
<path d="M12.8026 10.4333C12.0648 11.1957 10.8373 12.3494 9.1123 13.8995L8.28533 14.6197L7.45062 13.8658C7.4505 13.8657 7.45039 13.8656 7.45028 13.8655C6.12385 12.6642 5.16438 11.7794 4.56891 11.2087C3.98165 10.646 3.31639 9.94419 2.57251 9.10126C1.86723 8.27393 1.40423 7.55838 1.15666 6.95204C0.904018 6.30793 0.779297 5.65719 0.779297 4.99697C0.779297 3.89644 1.14431 2.98454 1.87492 2.23051C2.62791 1.4788 3.54973 1.1026 4.67366 1.1026C5.97607 1.1026 7.0391 1.59906 7.89728 2.61533L8.2793 3.06772L8.66131 2.61533C9.5195 1.59906 10.5825 1.1026 11.8849 1.1026C13.01 1.1026 13.917 1.47934 14.6435 2.22783L14.6435 2.22787L14.6487 2.23315C15.4043 2.98872 15.7793 3.89982 15.7793 4.99697C15.7793 5.8587 15.4926 6.78259 14.8776 7.77604C14.2444 8.79897 13.5541 9.68169 12.8084 10.4275L12.8083 10.4274L12.8026 10.4333Z" fill="#FF5449" stroke="white"/>
</svg>
