<svg width="282" height="251" viewBox="0 0 282 251" fill="none" xmlns="http://www.w3.org/2000/svg">
<g clip-path="url(#clip0_6638_53406)">
<path opacity="0.3" d="M126.75 232.158H252.017V254.11C252.017 255.01 251.66 255.872 251.026 256.509C250.392 257.145 249.531 257.502 248.634 257.502H130.132C129.236 257.502 128.375 257.145 127.741 256.509C127.107 255.872 126.75 255.01 126.75 254.11V232.158Z" fill="#CFCFF4"/>
<path opacity="0.3" d="M132.578 156.916H246.172C246.941 156.914 247.703 157.064 248.414 157.359C249.125 157.653 249.77 158.086 250.314 158.632C250.857 159.178 251.287 159.826 251.579 160.54C251.872 161.253 252.02 162.018 252.017 162.789V232.158H126.751V162.789C126.747 162.019 126.895 161.256 127.186 160.544C127.477 159.831 127.906 159.184 128.448 158.638C128.989 158.092 129.633 157.659 130.342 157.364C131.051 157.068 131.811 156.916 132.578 156.916Z" fill="#5F5F6B"/>
<path opacity="0.3" d="M189.852 248.718C191.99 248.718 193.724 246.979 193.724 244.833C193.724 242.688 191.99 240.949 189.852 240.949C187.713 240.949 185.979 242.688 185.979 244.833C185.979 246.979 187.713 248.718 189.852 248.718Z" fill="#5F5F6B"/>
<path opacity="0.3" d="M177.012 165.662H135.172V167.298H177.012V165.662Z" fill="#6BDB00"/>
<path opacity="0.3" d="M177.012 168.812H135.172V170.447H177.012V168.812Z" fill="#6BDB00"/>
<path opacity="0.3" d="M167.593 171.961H135.172V173.596H167.593V171.961Z" fill="#D89A00"/>
<path opacity="0.3" d="M165.66 181.409H134.87V183.045H165.66V181.409Z" fill="#D89A00"/>
<path opacity="0.3" d="M173.63 175.11H135.172V176.746H173.63V175.11Z" fill="#73D600"/>
<path opacity="0.3" d="M176.346 178.26H135.172V179.895H176.346V178.26Z" fill="#73D600"/>
<path opacity="0.3" d="M176.831 184.559H134.991V186.194H176.831V184.559Z" fill="#6BDB00"/>
<path opacity="0.3" d="M176.831 187.708H134.991V189.343H176.831V187.708Z" fill="#6BDB00"/>
<path opacity="0.3" d="M167.412 190.857H134.991V192.493H167.412V190.857Z" fill="#D89A00"/>
<path opacity="0.3" d="M165.484 200.306H134.693V201.941H165.484V200.306Z" fill="#D89A00"/>
<path opacity="0.3" d="M173.449 194.007H134.991V195.642H173.449V194.007Z" fill="#73D600"/>
<path opacity="0.3" d="M176.164 197.156H134.991V198.792H176.164V197.156Z" fill="#73D600"/>
<path opacity="0.3" d="M196.665 203.455H134.594V205.091H196.665V203.455Z" fill="#6BDB00"/>
<path opacity="0.3" d="M196.665 206.604H134.594V208.239H196.665V206.604Z" fill="#6BDB00"/>
<path opacity="0.3" d="M182.691 209.754H134.594V211.389H182.691V209.754Z" fill="#D89A00"/>
<path opacity="0.3" d="M179.827 219.196H134.148V220.832H179.827V219.196Z" fill="#D89A00"/>
<path opacity="0.3" d="M191.647 212.902H134.594V214.538H191.647V212.902Z" fill="#73D600"/>
<path opacity="0.3" d="M195.679 216.053H134.594V217.688H195.679V216.053Z" fill="#73D600"/>
<path d="M98.2373 47.8762C94.9056 46.6048 91.2383 46.5268 87.8559 47.6554C84.4735 48.784 81.5835 51.05 79.6749 54.0699C70.6326 68.4365 62.5474 83.3872 55.4721 98.8241C46.1575 119.095 38.8802 140.247 33.7481 161.966C25.4041 197.187 23.4488 233.626 27.9755 269.542C28.7099 275.502 29.628 281.465 30.7296 287.432C31.1573 289.766 32.1113 291.97 33.5186 293.877C34.926 295.784 36.7494 297.343 38.8495 298.434C40.9495 299.525 43.2706 300.121 45.6352 300.174C47.9998 300.228 50.3453 299.738 52.4922 298.743L145.233 255.607C147.334 254.622 149.189 253.177 150.661 251.378C152.133 249.58 153.185 247.474 153.739 245.214C154.294 242.954 154.336 240.599 153.864 238.32C153.392 236.042 152.417 233.899 151.011 232.048C150.438 231.289 149.874 230.525 149.32 229.755C144.737 223.474 140.568 216.9 136.838 210.074C128.92 195.47 122.835 179.938 118.722 163.834C114.256 146.391 111.593 128.533 110.774 110.543C110.053 95.392 110.349 80.2094 111.661 65.0982C111.952 61.7238 111.14 58.3459 109.346 55.4765C107.552 52.607 104.874 50.4024 101.718 49.1967L98.2373 47.8762Z" fill="#7171F4"/>
<path d="M146.522 242.849C146.627 242.8 146.72 242.727 146.791 242.635C146.863 242.544 146.912 242.436 146.934 242.322C146.956 242.207 146.951 242.089 146.918 241.977C146.886 241.865 146.827 241.763 146.748 241.678C141.839 236.473 137.269 230.956 133.065 225.163C128.472 218.889 124.295 212.318 120.562 205.493C112.644 190.886 106.557 175.353 102.44 159.247C97.9761 141.806 95.3145 123.95 94.4975 105.962C93.6186 87.0876 94.2837 68.1722 96.4859 49.4064C96.5057 49.2427 96.4697 49.0772 96.3837 48.9367C96.2977 48.7962 96.1667 48.6891 96.0122 48.6329L86.5988 45.0525C86.4948 45.0131 86.4009 44.9507 86.3243 44.8698C86.2477 44.7889 86.1903 44.6917 86.1564 44.5855C86.1225 44.4792 86.113 44.3666 86.1285 44.2562C86.1441 44.1457 86.1844 44.0402 86.2463 43.9475C86.3399 43.8076 86.4779 43.7036 86.638 43.6524C86.798 43.6012 86.9706 43.6059 87.1276 43.6657L112.261 53.2133C112.414 53.2721 112.542 53.38 112.627 53.5199C112.712 53.6599 112.748 53.8241 112.729 53.9868C110.526 72.7544 109.863 91.6718 110.746 110.548C111.561 128.537 114.223 146.393 118.689 163.833C122.813 179.939 128.909 195.471 136.839 210.074C140.576 216.896 144.752 223.467 149.342 229.744C149.841 230.44 150.348 231.13 150.862 231.815C152.27 233.724 153.236 235.924 153.69 238.254C154.144 240.584 154.073 242.987 153.485 245.286C152.896 247.586 151.803 249.725 150.286 251.548C148.769 253.37 146.866 254.831 144.715 255.822L35.7918 306.489C35.6921 306.534 35.5838 306.557 35.4744 306.556C35.3649 306.555 35.2571 306.53 35.1584 306.482C35.0597 306.435 34.9725 306.366 34.903 306.282C34.8336 306.197 34.7835 306.098 34.7563 305.991C33.9741 302.831 33.2397 299.667 32.553 296.499C32.5173 296.334 32.5387 296.161 32.6138 296.009C32.6888 295.858 32.8131 295.736 32.9661 295.665L146.522 242.849Z" fill="#4A65D4"/>
<path d="M174.476 45.6438C173.868 45.2674 173.143 45.1292 172.439 45.2556C171.736 45.382 171.104 45.7642 170.664 46.3289L168.235 49.3512C167.656 49.0326 166.985 48.9273 166.337 49.0534C165.689 49.1796 165.105 49.5292 164.688 50.0418L151.699 66.0649C148.543 69.9492 145.002 73.5018 141.129 76.6678L119.036 94.7352C118.389 95.1103 117.81 95.5922 117.323 96.1607L66.1747 156.291C65.0381 157.629 64.4775 159.364 64.6159 161.116C64.7543 162.868 65.5804 164.493 66.9128 165.635L69.116 167.502C69.7764 168.067 70.5413 168.497 71.3671 168.766C72.1929 169.034 73.0633 169.137 73.9288 169.068C74.7942 169 75.6377 168.761 76.411 168.365C77.1844 167.969 77.8724 167.424 78.4358 166.762L129.243 106.985L133.484 105.791C135.699 105.168 137.678 103.896 139.168 102.139C139.418 101.991 139.643 101.805 139.835 101.586L143.608 96.9342L168.698 66.0262C169.117 65.5074 169.339 64.8564 169.325 64.1888C169.311 63.5211 169.061 62.8801 168.62 62.3796L174.018 55.7494C174.49 55.1675 174.712 54.4216 174.636 53.6757C174.559 52.9297 174.191 52.2447 173.611 51.7712H173.583L175.131 49.8595C175.379 49.5522 175.56 49.1962 175.663 48.8145C175.766 48.4327 175.788 48.0336 175.728 47.6428C175.668 47.252 175.527 46.8782 175.314 46.5453C175.101 46.2124 174.821 45.9279 174.492 45.7101" fill="#D3A385"/>
<path d="M174.476 45.6438C173.868 45.2674 173.143 45.1292 172.439 45.2556C171.736 45.382 171.104 45.7642 170.664 46.3289L168.235 49.3512C167.656 49.0326 166.985 48.9273 166.337 49.0534C165.689 49.1796 165.105 49.5292 164.688 50.0418L151.699 66.0649C148.543 69.9492 145.002 73.5018 141.129 76.6678L119.036 94.7352C118.389 95.1103 117.81 95.5922 117.323 96.1607L66.1747 156.291C65.0381 157.629 64.4775 159.364 64.6159 161.116C64.7543 162.868 65.5804 164.493 66.9128 165.635L69.116 167.502C69.7764 168.067 70.5413 168.497 71.3671 168.766C72.1929 169.034 73.0633 169.137 73.9288 169.068C74.7942 169 75.6377 168.761 76.411 168.365C77.1844 167.969 77.8724 167.424 78.4358 166.762L129.243 106.985L133.484 105.791C135.699 105.168 137.678 103.896 139.168 102.139C139.418 101.991 139.643 101.805 139.835 101.586L143.608 96.9342L168.698 66.0262C169.117 65.5074 169.339 64.8564 169.325 64.1888C169.311 63.5211 169.061 62.8801 168.62 62.3796L174.018 55.7494C174.49 55.1675 174.712 54.4216 174.636 53.6757C174.559 52.9297 174.191 52.2447 173.611 51.7712H173.583L175.131 49.8595C175.379 49.5522 175.56 49.1962 175.663 48.8145C175.766 48.4327 175.788 48.0336 175.728 47.6428C175.668 47.252 175.527 46.8782 175.314 46.5453C175.101 46.2124 174.821 45.9279 174.492 45.7101" fill="#D3A385"/>
<path d="M174.222 46.5998L172.674 48.5115C172.683 48.5091 172.693 48.5091 172.702 48.5115C172.989 48.7454 173.227 49.0338 173.403 49.3601C173.578 49.6863 173.688 50.0442 173.726 50.4131C173.764 50.782 173.729 51.1548 173.623 51.5101C173.517 51.8655 173.343 52.1964 173.11 52.4841L167.712 59.1143C168.152 59.6149 168.402 60.2559 168.416 60.9235C168.43 61.5911 168.208 62.2422 167.789 62.761L142.699 93.7021L138.926 98.3543C138.735 98.581 138.51 98.7767 138.26 98.9345C136.767 100.691 134.786 101.96 132.57 102.581L128.334 103.775L77.5213 163.568C76.3844 164.906 74.7647 165.735 73.0181 165.875C71.2716 166.015 69.5411 165.454 68.2071 164.314L66.0038 162.447C65.4423 161.96 64.9657 161.383 64.5938 160.739C64.6102 161.672 64.824 162.591 65.2209 163.435C65.6178 164.279 66.1888 165.029 66.8961 165.635L69.0994 167.502C69.7598 168.068 70.5247 168.497 71.3505 168.766C72.1762 169.034 73.0467 169.137 73.9122 169.069C74.7776 169 75.6211 168.761 76.3944 168.365C77.1678 167.969 77.8558 167.424 78.4192 166.762L129.226 106.985L133.462 105.791C135.679 105.169 137.66 103.897 139.152 102.139C139.402 101.991 139.627 101.805 139.818 101.587L143.591 96.9344L168.681 66.0264C169.1 65.5076 169.322 64.8565 169.308 64.1889C169.294 63.5212 169.045 62.8802 168.604 62.3797L174.002 55.7495C174.473 55.1676 174.695 54.4217 174.619 53.6758C174.543 52.9298 174.174 52.2448 173.594 51.7713H173.567L175.114 49.8596C175.349 49.5689 175.524 49.2344 175.629 48.8756C175.734 48.5167 175.768 48.1405 175.727 47.7686C175.687 47.3967 175.573 47.0366 175.394 46.7089C175.214 46.3812 174.971 46.0925 174.679 45.8594C174.573 46.1522 174.419 46.4249 174.222 46.6661" fill="#D38374"/>
<path d="M162.727 64.3792C162.754 64.5204 162.812 64.6539 162.897 64.7701C162.981 64.8862 163.09 64.9823 163.216 65.0514C163.341 65.1206 163.481 65.161 163.624 65.1699C163.767 65.1788 163.91 65.156 164.044 65.103C165.079 64.7163 166.423 64.3792 166.676 61.4619" stroke="black" stroke-miterlimit="10" stroke-linecap="round"/>
<path d="M167.486 54.462C167.486 54.462 167.624 55.987 169.904 55.429C172.184 54.8709 173.594 52.3901 172.509 51.0088" stroke="black" stroke-miterlimit="10" stroke-linecap="round"/>
<path d="M169.056 48.3067C169.056 48.3067 169.381 49.9642 171.54 49.1686C173.699 48.373 173.831 45.7209 173.159 45.207" stroke="black" stroke-miterlimit="10" stroke-linecap="round"/>
<path d="M162.919 52.1803C162.919 52.1803 166.092 53.4179 166.748 49.0088" stroke="black" stroke-miterlimit="10" stroke-linecap="round"/>
<path d="M154.9 74.2695L155.423 76.1315" stroke="black" stroke-miterlimit="10" stroke-linecap="round"/>
<path d="M155.748 73.3135L156.282 75.2418" stroke="black" stroke-miterlimit="10" stroke-linecap="round"/>
<path d="M156.899 60.9102L157.335 62.4683" stroke="black" stroke-miterlimit="10" stroke-linecap="round"/>
<path d="M157.687 60.1025L158.276 62.2021" stroke="black" stroke-miterlimit="10" stroke-linecap="round"/>
<path d="M156.233 66.8379L156.69 68.4568" stroke="black" stroke-miterlimit="10" stroke-linecap="round"/>
<path d="M146.384 82.1209L161.625 65.584L164.93 61.9815C164.93 61.9815 166.5 60.5726 168.61 62.3517" stroke="black" stroke-miterlimit="10" stroke-linecap="round"/>
<path d="M148.5 75.3529L170.334 51.3238C170.824 50.9746 171.426 50.8203 172.023 50.8907C172.621 50.9611 173.171 51.2513 173.567 51.705" stroke="black" stroke-miterlimit="10" stroke-linecap="round"/>
<path d="M152.438 65.4676L168.207 49.3506" stroke="black" stroke-miterlimit="10" stroke-linecap="round"/>
<path d="M86.7146 168.116C82.9784 172.171 78.7757 175.767 74.1946 178.829C69.5049 181.975 64.3963 184.441 59.0197 186.155C53.3849 187.951 47.4748 188.718 41.57 188.421C40.0431 188.345 38.5221 188.179 37.0147 187.923C36.249 187.813 35.4896 187.662 34.7399 187.47L32.476 186.918L30.2452 186.172C29.5072 185.912 28.7636 185.68 28.042 185.349C27.3204 185.017 26.5878 184.741 25.8883 184.371C25.1888 184.001 24.4782 183.647 23.7897 183.266C21.0621 181.702 18.5354 179.809 16.2656 177.63C14.0763 175.529 12.1138 173.203 10.4104 170.69C7.25942 165.977 4.84471 160.808 3.24987 155.363C1.73496 150.25 0.751113 144.994 0.314031 139.677C0.0937058 137.053 -0.0109481 134.423 0.0221007 131.754C0.0221007 130.417 0.088194 129.08 0.198357 127.699C0.308519 126.317 0.479273 124.936 0.639009 123.571C1.44465 118.166 2.9347 112.885 5.07306 107.858C7.16698 102.955 9.79372 98.2982 12.9056 93.9729C18.9391 85.6795 26.2367 78.3909 34.5306 72.3748C38.544 69.421 42.7263 66.7053 47.0561 64.2417C51.3487 61.8236 55.7609 59.6254 60.2756 57.6557C67.1738 54.652 74.2749 52.141 81.526 50.1414C85.0732 49.1524 94.8722 48.6496 95.759 52.23L96.1666 57.5839C97.0699 61.2305 89.1933 65.275 85.613 66.3855C79.3632 68.2962 73.2529 70.639 67.326 73.397C63.4013 75.2265 59.5719 77.2551 55.8526 79.4747C52.1838 81.6748 48.6487 84.0917 45.2659 86.7128C38.5735 91.9175 32.6358 97.9344 28.1081 104.625C23.5804 111.316 20.617 118.682 19.6972 126.124C19.6255 127.058 19.5209 127.981 19.4713 128.92C19.4218 129.859 19.4162 130.843 19.4162 131.821C19.4162 133.793 19.5705 135.81 19.7908 137.799C20.2067 141.731 21.0263 145.61 22.2364 149.374C23.3274 152.828 24.9358 156.096 27.0065 159.065C28.783 161.619 31.1195 163.73 33.8365 165.237L34.828 165.718C35.1475 165.889 35.511 165.994 35.847 166.143C36.1906 166.286 36.544 166.405 36.9046 166.497C37.2626 166.607 37.6206 166.718 37.9732 166.839L39.0748 167.06C39.4462 167.153 39.8234 167.219 40.2039 167.259C40.9798 167.368 41.7616 167.429 42.5449 167.442C45.7231 167.53 46.5769 164.325 49.8983 163.193C53.3237 161.999 56.5634 160.325 59.521 158.22C62.5927 156.049 65.3975 153.521 67.8768 150.689L86.7146 168.116Z" fill="#7171F4"/>
<path d="M29.1714 185.818C29.1714 185.818 44.7209 189.321 52.5534 187.73C54.7254 187.316 56.8746 186.791 58.9924 186.155C64.369 184.441 69.4776 181.974 74.1673 178.828C78.758 175.768 82.9701 172.172 86.7149 168.115L82.0991 163.833" stroke="black" stroke-miterlimit="10"/>
<path d="M154.464 117.002L76.337 111.367C75.9023 111.01 75.4227 110.713 74.9104 110.483L68.0087 107.383L46.2626 91.9621C46.0094 91.7806 45.7231 91.651 45.42 91.5805C45.1169 91.5101 44.8029 91.5002 44.496 91.5515C44.1891 91.6028 43.8953 91.7143 43.6313 91.8795C43.3674 92.0448 43.1385 92.2606 42.9577 92.5146L42.5281 93.1224C41.779 94.1832 42.8475 95.454 43.9106 96.2055L49.0938 100.023L21.4705 81.4918C20.9439 81.1544 20.3056 81.0394 19.6949 81.1718C19.0841 81.3043 18.5503 81.6735 18.2097 82.1991L17.8076 82.8289C17.0805 83.6246 17.422 85.3926 18.5126 86.0998L26.3286 91.3046L14.1171 84.2434C13.5719 83.9371 12.9279 83.8599 12.3261 84.0286C11.7243 84.1974 11.2136 84.5985 10.9059 85.144L10.5423 85.796C10.2384 86.3432 10.1623 86.9886 10.3304 87.5919C10.4986 88.1952 10.8974 88.7074 11.4402 89.0172L13.5498 90.2603C12.7731 90.3322 10.7957 89.0779 10.1788 90.6305L9.83728 91.2935C9.55285 91.8516 9.49977 92.4998 9.6896 93.0969C9.87943 93.694 10.2968 94.1917 10.8508 94.4816L40.4074 111.61L17.7745 99.2498C17.2182 98.9645 16.572 98.9113 15.9767 99.1017C15.3814 99.2921 14.8853 99.7108 14.5963 100.266L14.2548 100.929C13.9704 101.488 13.9173 102.136 14.1071 102.733C14.297 103.33 14.7143 103.828 15.2683 104.118L42.0984 120.842C42.4901 121.138 42.9132 121.39 43.3598 121.594L65.519 131.539C66.4175 131.933 67.3921 132.122 68.3723 132.092H68.3998L155.015 148.85C160.209 147.485 162.545 136.374 162.809 132.738L162.512 123.494C162.771 119.859 158.133 117.262 154.503 117.002" fill="#D3A385"/>
<path d="M161.89 129.544C161.625 133.185 159.29 144.291 154.096 145.656L67.5132 128.925H67.4857C66.5055 128.956 65.5309 128.767 64.6325 128.373L42.4732 118.427C42.0255 118.226 41.6023 117.974 41.2119 117.676L14.4038 100.995C14.3757 100.973 14.3463 100.953 14.3156 100.935L14.2826 100.995C13.9982 101.553 13.9451 102.202 14.1349 102.799C14.3247 103.396 14.7421 103.894 15.2961 104.183L42.0987 120.842C42.4904 121.138 42.9134 121.39 43.36 121.593L65.5193 131.539C66.4167 131.936 67.3921 132.125 68.3725 132.091H68.4L155.015 148.849C160.21 147.484 162.545 136.373 162.809 132.738L162.512 123.494C162.571 122.46 162.258 121.438 161.631 120.615L161.89 129.544Z" fill="#D38374"/>
<path d="M45.5684 102.454L26.0972 91.1553" stroke="black" stroke-miterlimit="10" stroke-linecap="round"/>
<path d="M39.8679 104.725L13.561 90.2764" stroke="black" stroke-miterlimit="10" stroke-linecap="round"/>
<path d="M49.105 100.039L60.1433 104.614" stroke="black" stroke-miterlimit="10" stroke-linecap="round"/>
<path d="M19.9227 81.1484C19.9227 81.1484 18.5402 84.3807 21.9608 85.3752C25.3813 86.3698 24.1916 83.3254 24.1916 83.3254" stroke="black" stroke-miterlimit="10" stroke-linecap="round"/>
<path d="M13.6271 84.0498C13.6271 84.0498 11.7433 85.9284 14.602 87.5417C17.4607 89.1551 17.7526 86.6577 17.7526 86.6577" stroke="black" stroke-miterlimit="10" stroke-linecap="round"/>
<path d="M11.8534 89.9121C11.8534 89.9121 10.9171 91.9122 12.6907 92.9123C14.4643 93.9124 16.0341 92.3598 15.9956 91.9841" stroke="black" stroke-miterlimit="10" stroke-linecap="round"/>
<path d="M16.7609 99.0176C16.7609 99.0176 15.2296 100.609 17.5761 101.935C19.9226 103.261 20.0493 100.509 20.0493 100.509" stroke="black" stroke-miterlimit="10" stroke-linecap="round"/>
<path d="M44.5991 91.5586C44.453 91.7869 44.3567 92.0436 44.3168 92.312C44.2769 92.5803 44.2942 92.8541 44.3676 93.1152C44.4411 93.3763 44.5689 93.6189 44.7427 93.8268C44.9165 94.0347 45.1323 94.2032 45.3758 94.3212C47.2265 95.3655 48.196 94.4483 47.9536 93.5919" stroke="black" stroke-miterlimit="10" stroke-linecap="round"/>
<path d="M42.5557 93.1387L60.65 104.808L48.7469 99.8352C48.7469 99.8352 40.6224 94.7465 42.5557 93.1387Z" fill="#B5554A"/>
<path d="M151.418 113.56C158.997 115.115 166.707 115.94 174.442 116.024C178.055 116.042 181.665 115.8 185.244 115.3C186.109 115.19 186.896 115.024 187.75 114.886C188.604 114.748 189.364 114.56 190.113 114.333C191.531 113.985 192.927 113.552 194.294 113.035C195.324 112.633 196.322 112.153 197.279 111.598C198.023 111.162 198.381 110.836 198.551 110.808C198.722 110.781 198.739 111.123 198.888 111.04C199.036 110.957 199.141 110.432 199.025 109.515C198.812 108.299 198.442 107.116 197.924 105.996C197.274 104.498 196.512 103.051 195.643 101.669C193.612 98.4459 191.328 95.39 188.813 92.5308C188.152 91.7628 187.475 90.9948 186.748 90.1881C186.362 89.7571 186.059 89.4477 185.729 89.083L184.748 88.0333C184.109 87.315 183.41 86.652 182.721 85.9834L181.691 84.9723C181.35 84.6297 180.975 84.3259 180.589 83.9999C177.703 81.3668 174.614 78.9651 171.352 76.8171C164.602 72.4037 157.321 68.867 149.683 66.2916C141.755 63.6325 133.589 61.7488 125.299 60.6669C116.824 59.5532 108.275 59.1043 99.73 59.3243L98.6284 46.1357C107.853 44.8355 117.164 44.2555 126.478 44.4007C136.008 44.5549 145.501 45.6374 154.822 47.633C164.426 49.6867 173.732 52.9523 182.517 57.3518C187.018 59.6157 191.338 62.2239 195.439 65.1534C195.957 65.5236 196.486 65.8717 196.987 66.2584L198.502 67.4243C199.51 68.1978 200.529 68.9713 201.487 69.8112L202.947 71.0488C203.426 71.4577 203.949 71.8997 204.352 72.2588C205.216 73.0158 206.12 73.828 207.012 74.6512C210.82 78.1012 214.353 81.846 217.577 85.8508C219.355 88.0697 220.977 90.4108 222.429 92.8568C224.1 95.6437 225.456 98.6088 226.472 101.697C227.728 105.474 228.279 109.45 228.097 113.427C227.986 115.687 227.616 117.926 226.996 120.102C226.353 122.258 225.476 124.337 224.379 126.301C222.414 129.781 219.871 132.9 216.861 135.522C214.319 137.744 211.549 139.689 208.598 141.324C205.967 142.784 203.238 144.057 200.43 145.136C199.08 145.689 197.747 146.12 196.403 146.578C195.059 147.037 193.737 147.413 192.421 147.755C187.281 149.134 182.047 150.129 176.761 150.733C166.688 151.841 156.531 151.963 146.434 151.098L151.418 113.56Z" fill="#4A65D4"/>
<path d="M129.226 106.985L133.468 105.791C135.682 105.168 137.661 103.896 139.152 102.139C139.402 101.991 139.627 101.805 139.818 101.587L143.592 96.9343L168.681 66.0264C169.1 65.5075 169.322 64.8565 169.308 64.1889C169.294 63.5212 169.045 62.8802 168.604 62.3797L174.002 55.7495C174.473 55.1676 174.695 54.4217 174.619 53.6758C174.543 52.9298 174.174 52.2448 173.594 51.7713H173.567L175.115 49.8596C175.364 49.5527 175.546 49.1967 175.649 48.8148C175.752 48.4329 175.774 48.0336 175.714 47.6425C175.654 47.2514 175.513 46.8774 175.299 46.5446C175.086 46.2117 174.805 45.9275 174.476 45.7102C173.868 45.3338 173.143 45.1956 172.439 45.322C171.736 45.4484 171.104 45.8306 170.664 46.3953L168.235 49.3513C167.656 49.0327 166.985 48.9274 166.337 49.0535C165.689 49.1797 165.105 49.5294 164.688 50.0419L151.699 66.065C148.543 69.9493 145.002 73.5019 141.129 76.6679L119.036 94.7353C118.39 95.1107 117.81 95.5926 117.323 96.1608" fill="#D3A385"/>
<path d="M129.226 106.985L133.468 105.791C135.682 105.168 137.662 103.896 139.152 102.139C139.402 101.991 139.627 101.805 139.819 101.587L143.592 96.9343L168.681 66.0264C169.1 65.5075 169.323 64.8565 169.309 64.1889C169.294 63.5212 169.045 62.8802 168.604 62.3797L174.002 55.7495C174.474 55.1676 174.696 54.4217 174.619 53.6758C174.543 52.9298 174.174 52.2448 173.595 51.7713H173.567L175.115 49.8596C175.364 49.5527 175.546 49.1967 175.649 48.8148C175.752 48.4329 175.774 48.0336 175.714 47.6425C175.654 47.2514 175.513 46.8774 175.299 46.5446C175.086 46.2117 174.805 45.9275 174.476 45.7102C173.868 45.3338 173.143 45.1956 172.439 45.322C171.736 45.4484 171.104 45.8306 170.664 46.3953L168.235 49.3513C167.656 49.0327 166.985 48.9274 166.337 49.0535C165.689 49.1797 165.106 49.5294 164.688 50.0419L151.7 66.065C148.543 69.9493 145.002 73.5019 141.13 76.6679L119.036 94.7353C118.39 95.1107 117.811 95.5926 117.323 96.1608L109.761 105.056" fill="#D3A385"/>
<path d="M123.377 113.864L129.226 106.985L133.468 105.791C135.682 105.168 137.661 103.896 139.152 102.139C139.402 101.991 139.627 101.805 139.819 101.587L143.592 96.9344L168.681 66.0264C169.1 65.5076 169.323 64.8565 169.308 64.1889C169.294 63.5212 169.045 62.8802 168.604 62.3797L174.002 55.7495C174.474 55.1676 174.696 54.4217 174.619 53.6758C174.543 52.9298 174.174 52.2448 173.594 51.7713H173.567L175.115 49.8596C175.349 49.5689 175.524 49.2344 175.629 48.8756C175.735 48.5167 175.768 48.1405 175.728 47.7686C175.687 47.3967 175.574 47.0366 175.394 46.7089C175.214 46.3812 174.971 46.0925 174.68 45.8594C174.574 46.1522 174.419 46.4249 174.222 46.6661L172.675 48.5778C172.684 48.5754 172.693 48.5754 172.702 48.5778C172.989 48.8117 173.227 49.1001 173.403 49.4264C173.579 49.7527 173.688 50.1105 173.726 50.4794C173.764 50.8483 173.729 51.2211 173.623 51.5764C173.518 51.9318 173.343 52.2627 173.11 52.5504L167.712 59.1806C168.152 59.6811 168.402 60.3221 168.416 60.9898C168.43 61.6574 168.208 62.3085 167.789 62.8273L142.699 93.7684L138.926 98.4206C138.735 98.6473 138.51 98.843 138.26 99.0008C136.767 100.757 134.786 102.027 132.57 102.647L128.334 103.841L121.245 112.178" fill="#D38374"/>
<path d="M162.727 64.3792C162.754 64.5204 162.812 64.6539 162.897 64.7701C162.981 64.8862 163.09 64.9823 163.216 65.0514C163.341 65.1206 163.481 65.161 163.624 65.1699C163.767 65.1788 163.91 65.156 164.044 65.103C165.079 64.7163 166.423 64.3792 166.676 61.4619" stroke="black" stroke-miterlimit="10" stroke-linecap="round"/>
<path d="M167.486 54.462C167.486 54.462 167.624 55.987 169.904 55.429C172.184 54.8709 173.594 52.3901 172.509 51.0088" stroke="black" stroke-miterlimit="10" stroke-linecap="round"/>
<path d="M169.056 48.3067C169.056 48.3067 169.381 49.9642 171.54 49.1686C173.699 48.373 173.831 45.7209 173.159 45.207" stroke="black" stroke-miterlimit="10" stroke-linecap="round"/>
<path d="M162.92 52.1803C162.92 52.1803 166.093 53.4179 166.748 49.0088" stroke="black" stroke-miterlimit="10" stroke-linecap="round"/>
<path d="M154.9 74.2695L155.423 76.1315" stroke="black" stroke-miterlimit="10" stroke-linecap="round"/>
<path d="M155.748 73.3135L156.282 75.2418" stroke="black" stroke-miterlimit="10" stroke-linecap="round"/>
<path d="M156.899 60.9102L157.335 62.4683" stroke="black" stroke-miterlimit="10" stroke-linecap="round"/>
<path d="M157.687 60.1025L158.276 62.2021" stroke="black" stroke-miterlimit="10" stroke-linecap="round"/>
<path d="M156.233 66.8379L156.69 68.4568" stroke="black" stroke-miterlimit="10" stroke-linecap="round"/>
<path d="M146.384 82.1209L161.625 65.584L164.93 61.9815C164.93 61.9815 166.5 60.5726 168.61 62.3517" stroke="black" stroke-miterlimit="10" stroke-linecap="round"/>
<path d="M148.5 75.3529L170.334 51.3238C170.824 50.9746 171.426 50.8203 172.023 50.8907C172.621 50.9611 173.171 51.2513 173.567 51.705" stroke="black" stroke-miterlimit="10" stroke-linecap="round"/>
<path d="M152.438 65.4676L168.208 49.3506" stroke="black" stroke-miterlimit="10" stroke-linecap="round"/>
<path d="M39.6694 110.487L47.469 100.349" stroke="black" stroke-miterlimit="10"/>
<path d="M35.6597 254.828C35.6597 254.828 92.9883 219.466 138.205 235.827" stroke="white" stroke-miterlimit="10"/>
<path d="M33.313 164.768C33.313 164.768 46.0588 169.359 52.1618 163.895C58.2648 158.43 59.025 152.634 62.6273 148.921C66.2296 145.208 69.4904 151.872 69.4904 151.872" stroke="white" stroke-miterlimit="10"/>
<path d="M93.3617 278.217C127.791 270.485 153.648 255.014 151.114 243.663C148.58 232.312 118.616 229.378 84.1866 237.111C49.7572 244.843 23.9006 260.313 26.4342 271.665C28.9678 283.016 58.9322 285.949 93.3617 278.217Z" fill="#4B30B8"/>
<path d="M95.99 60.7555C100.504 60.7555 104.164 57.1686 104.164 52.744C104.164 48.3193 100.504 44.7324 95.99 44.7324C91.4756 44.7324 87.8159 48.3193 87.8159 52.744C87.8159 57.1686 91.4756 60.7555 95.99 60.7555Z" fill="#F9AE97"/>
<path d="M95.99 60.7555C100.504 60.7555 104.164 57.1686 104.164 52.744C104.164 48.3193 100.504 44.7324 95.99 44.7324C91.4756 44.7324 87.8159 48.3193 87.8159 52.744C87.8159 57.1686 91.4756 60.7555 95.99 60.7555Z" stroke="black" stroke-miterlimit="10" stroke-linecap="round"/>
<path d="M125.916 28.1401C124.759 32.3887 122.372 36.1978 119.058 39.0857C115.743 41.9736 111.648 43.8106 107.293 44.3643C102.937 44.918 98.5155 44.1636 94.5872 42.1964C90.6589 40.2292 87.4005 37.1377 85.2239 33.3129C83.0473 29.488 82.0504 25.1015 82.3592 20.7083C82.668 16.315 84.2687 12.1123 86.9588 8.63163C89.6489 5.15096 93.3076 2.54868 97.4721 1.15391C101.637 -0.240852 106.12 -0.365457 110.355 0.795857C116.033 2.35277 120.862 6.10808 123.78 11.2359C126.698 16.3637 127.466 22.4442 125.916 28.1401Z" fill="#070707"/>
<path d="M96.2105 27.0181C94.9549 24.8113 94.6247 22.1945 95.2925 19.7434C95.9603 17.2923 97.5715 15.2078 99.7715 13.9483C101.972 12.6888 104.58 12.3576 107.024 13.0274C109.467 13.6973 111.545 15.3135 112.801 17.5203" stroke="white" stroke-miterlimit="10"/>
<path d="M104.506 36.5825C112.385 36.5825 118.772 30.1755 118.772 22.2722C118.772 14.3688 112.385 7.96191 104.506 7.96191C96.6269 7.96191 90.2397 14.3688 90.2397 22.2722C90.2397 30.1755 96.6269 36.5825 104.506 36.5825Z" stroke="white" stroke-miterlimit="10"/>
<path d="M120.49 13.1224C122.294 16.2934 123.12 19.9297 122.863 23.5715C122.607 27.2133 121.279 30.697 119.049 33.5821C116.819 36.4672 113.786 38.6241 110.333 39.7801C106.881 40.9361 103.164 41.0393 99.6536 40.0766C96.1428 39.1139 92.9955 37.1286 90.6095 34.3716C88.2235 31.6147 86.7061 28.21 86.2492 24.588C85.7922 20.966 86.4161 17.2895 88.0422 14.0232C89.6682 10.7569 92.2232 8.04766 95.3842 6.23797C99.6239 3.81243 104.65 3.17509 109.358 4.46608C114.066 5.75706 118.07 8.87069 120.49 13.1224Z" stroke="white" stroke-miterlimit="10"/>
<path d="M94.5139 22.3612C85.2327 24.8641 84.4946 40.7601 84.3514 43.7713C84.1586 47.8821 83.8942 53.6062 87.4415 55.9268C91.534 58.6286 97.8519 54.9764 98.6505 54.5013C107.656 49.1474 112.944 34.058 106.615 26.4609C105.036 24.6396 102.979 23.2996 100.678 22.5932C98.6861 21.9333 96.5491 21.8528 94.5139 22.3612Z" fill="#F9AE97"/>
<path d="M109.221 43.8037L108.389 43.5772C107.756 43.4015 107.218 42.9814 106.893 42.4088C106.567 41.8362 106.482 41.1577 106.654 40.5217L106.88 39.6929C107.055 39.0576 107.473 38.5175 108.044 38.1904C108.615 37.8633 109.291 37.7758 109.926 37.947L110.752 38.179C111.066 38.2648 111.359 38.4117 111.617 38.6114C111.874 38.8112 112.089 39.0598 112.25 39.3431C112.411 39.6264 112.515 39.9387 112.556 40.2623C112.596 40.5859 112.573 40.9144 112.487 41.229L112.261 42.0633C112.086 42.6972 111.668 43.2359 111.098 43.562C110.529 43.888 109.854 43.9749 109.221 43.8037Z" fill="#F9AE97"/>
<path d="M99.9009 22.9135L91.3633 29.8145C91.3633 29.8145 86.0534 45.6221 87.9152 46.1304C89.7769 46.6387 89.5125 46.158 89.5125 46.158L90.5315 49.2577L85.9378 47.9979C85.9378 47.9979 85.8661 53.28 88.5156 54.3464C88.3393 56.2249 88.4219 56.247 88.4219 56.247C88.4219 56.247 83.9658 57.5731 84.2633 45.39C84.5607 33.2069 87.816 28.295 87.816 28.295C87.816 28.295 90.9942 20.2448 99.9339 22.4383C99.9619 22.597 99.9505 22.7602 99.9009 22.9135Z" fill="#B5554A"/>
<path d="M110.956 40.1689L108.328 41.6773" stroke="black" stroke-miterlimit="10" stroke-linecap="round"/>
<path d="M108.89 39.6045L110.394 42.24" stroke="black" stroke-miterlimit="10" stroke-linecap="round"/>
<path d="M95.037 41.2959C94.9765 41.5173 94.852 41.7156 94.6792 41.866C94.5063 42.0164 94.2929 42.1119 94.0659 42.1406C93.8389 42.1693 93.6085 42.1298 93.4039 42.0271C93.1993 41.9244 93.0296 41.7632 92.9163 41.5638C92.8031 41.3644 92.7513 41.1358 92.7676 40.9068C92.7839 40.6779 92.8674 40.459 93.0078 40.2777C93.1481 40.0965 93.3389 39.961 93.5559 39.8885C93.773 39.816 94.0066 39.8097 94.2273 39.8704C94.5223 39.9531 94.7728 40.1492 94.9244 40.4161C95.076 40.683 95.1165 40.9992 95.037 41.2959Z" fill="black"/>
<path d="M97.0751 41.8589C96.904 42.4848 96.5517 43.0458 96.0628 43.471C95.5739 43.8961 94.9702 44.1662 94.3282 44.2472C93.6862 44.3283 93.0347 44.2165 92.456 43.9262C91.8774 43.6358 91.3975 43.1798 91.0771 42.6159C90.7568 42.052 90.6103 41.4054 90.6562 40.758C90.7021 40.1106 90.9384 39.4914 91.3351 38.9786C91.7319 38.4659 92.2712 38.0827 92.8851 37.8774C93.4989 37.6722 94.1597 37.6541 94.7838 37.8255C95.1983 37.9393 95.5864 38.1339 95.9259 38.3983C96.2654 38.6626 96.5497 38.9914 96.7625 39.366C96.9752 39.7406 97.1124 40.1535 97.166 40.5812C97.2197 41.009 97.1888 41.4431 97.0751 41.8589Z" stroke="black" stroke-miterlimit="10"/>
<path d="M89.2313 39.7041C89.0605 40.33 88.7086 40.891 88.22 41.3163C87.7314 41.7417 87.1282 42.0121 86.4864 42.0936C85.8446 42.1751 85.1932 42.0639 84.6144 41.7741C84.0356 41.4844 83.5554 41.029 83.2346 40.4655C82.9137 39.9021 82.7665 39.2559 82.8117 38.6086C82.8568 37.9613 83.0923 37.3419 83.4882 36.8288C83.8842 36.3156 84.4229 35.9318 85.0363 35.7256C85.6497 35.5195 86.3102 35.5004 86.9344 35.6708C87.7677 35.9071 88.4753 36.4622 88.9048 37.2165C89.3344 37.9708 89.4516 38.864 89.2313 39.7041Z" stroke="black" stroke-miterlimit="10"/>
<path d="M87.9701 39.1797C87.9096 39.4011 87.7851 39.5995 87.6123 39.7498C87.4394 39.9002 87.226 39.9957 86.999 40.0244C86.772 40.0531 86.5416 40.0136 86.337 39.9109C86.1324 39.8082 85.9627 39.647 85.8494 39.4476C85.7362 39.2482 85.6844 39.0196 85.7007 38.7907C85.717 38.5617 85.8005 38.3428 85.9409 38.1615C86.0812 37.9803 86.272 37.8448 86.489 37.7723C86.7061 37.6998 86.9397 37.6935 87.1604 37.7542C87.4562 37.8356 87.7077 38.0315 87.8595 38.2988C88.0113 38.5661 88.0511 38.883 87.9701 39.1797Z" fill="black"/>
<path d="M104.34 24.1345C104.34 24.1345 107.976 28.0408 104.891 31.6156C101.09 36.0358 109.997 37.8315 109.997 37.8315C109.997 37.8315 117.929 20.8415 104.329 24.1345" fill="#070707"/>
<path d="M88.7798 37.1963L92.2995 38.1632" stroke="black" stroke-miterlimit="10"/>
<path d="M85.938 47.998L92.1457 49.733" stroke="black" stroke-miterlimit="10"/>
<path d="M96.7285 38.9257L109.783 37.6328" stroke="black" stroke-miterlimit="10"/>
<path d="M84.1144 47.2852C84.1144 47.2852 83.7344 52.5452 86.6482 55.3851C89.562 58.2251 94.6625 56.3741 94.6625 56.3741C94.6625 56.3741 98.8266 54.6447 100.909 52.7993" stroke="black" stroke-miterlimit="10"/>
<path d="M83.999 135.473L102.143 138.843" stroke="black" stroke-miterlimit="10"/>
<path d="M102.864 113.366L122.848 114.703" stroke="black" stroke-miterlimit="10"/>
<path d="M97.896 33.4336C98.1525 33.7834 98.4832 34.0719 98.8642 34.2783C99.2451 34.4846 99.6669 34.6037 100.099 34.627" stroke="black" stroke-miterlimit="10"/>
<path d="M99.9561 60.4794L112.157 59.6064" stroke="white" stroke-miterlimit="10"/>
<path d="M68.7251 72.7176C68.7251 72.7176 82.523 65.2862 86.5935 65.1426" stroke="white" stroke-miterlimit="10"/>
<path d="M139.786 241.015C119.956 237.805 76.0123 234.904 32.0574 260.353L15.3843 446H34.2386L92.2558 263.906L108.819 262.154L82.0382 446H102.864L148.455 253.723C148.754 252.314 148.765 250.86 148.487 249.447C148.208 248.034 147.647 246.693 146.836 245.505C146.025 244.316 144.982 243.306 143.77 242.534C142.558 241.762 141.203 241.245 139.786 241.015Z" fill="black"/>
</g>
<defs>
<clipPath id="clip0_6638_53406">
<rect width="282" height="446" fill="white"/>
</clipPath>
</defs>
</svg>
