<svg width="22" height="22" viewBox="0 0 22 22" fill="none" xmlns="http://www.w3.org/2000/svg">
<circle cx="11" cy="11" r="11" fill="#FFFBFF"/>
<path d="M11 15.0384L10.3596 14.46C9.62971 13.799 9.09951 13.3101 8.76899 12.9934C8.43847 12.6766 8.06664 12.2841 7.6535 11.8159C7.25412 11.3477 6.97869 10.9276 6.82721 10.5558C6.67572 10.1702 6.59998 9.7777 6.59998 9.37833C6.59998 8.70352 6.82721 8.132 7.28167 7.66377C7.7499 7.19554 8.3283 6.96143 9.01688 6.96143C9.81562 6.96143 10.4767 7.27128 11 7.891C11.5233 7.27128 12.1843 6.96143 12.9831 6.96143C13.6716 6.96143 14.2432 7.19554 14.6976 7.66377C15.1659 8.132 15.4 8.70352 15.4 9.37833C15.4 9.91542 15.2209 10.4732 14.8629 11.0516C14.5048 11.63 14.1123 12.1326 13.6854 12.5595C13.2723 12.9865 12.5906 13.6268 11.6404 14.4807L11 15.0384Z" fill="#FF5449"/>
</svg>
