<svg width="92" height="36" viewBox="0 0 92 36" fill="none" xmlns="http://www.w3.org/2000/svg">
<path d="M41.9598 24.7696V24.7701V31.8461C41.9598 33.524 40.5997 34.8841 38.9218 34.8841C37.2439 34.8841 35.8838 33.524 35.8838 31.8461V24.7701C35.8838 23.0923 37.2439 21.7321 38.9218 21.7321C40.6019 21.7321 41.9615 23.0924 41.9598 24.7696Z" fill="white" stroke="#5839F0"/>
<path d="M17.6921 28.8079C19.9223 28.8079 21.7301 27 21.7301 24.7699C21.7301 23.0927 23.0936 21.7319 24.7722 21.7319C26.45 21.7319 27.8102 23.092 27.8102 24.7699C27.8102 30.3577 23.282 34.8859 17.6941 34.8859C12.1063 34.8859 7.57812 30.3558 7.57812 24.7699V3.53984C7.57812 1.86198 8.93827 0.501831 10.6161 0.501831C12.294 0.501831 13.6541 1.86198 13.6541 3.53984V24.7699C13.6541 27 15.462 28.8079 17.6921 28.8079Z" fill="white" stroke="#5839F0"/>
<path d="M77.3456 19.7225L78.0175 19.9685C79.2438 20.4175 80.4462 20.732 81.3836 20.732C86.9695 20.732 91.4996 16.2038 91.4996 10.616C91.4996 5.02815 86.9715 0.5 81.3836 0.5C76.3167 0.5 72.1196 4.22751 71.384 9.08882L71.2783 9.78732L70.6547 9.45538L55.5687 1.42537L55.568 1.42501L54.546 0.87901L54.5397 0.875655L54.5335 0.872122L54.5245 0.867239C54.5188 0.864131 54.5075 0.858063 54.4947 0.850776C54.4943 0.850559 54.4939 0.850341 54.4935 0.850122L54.4624 0.832535L54.4623 0.83249L54.4456 0.825652C54.4383 0.822666 54.4279 0.818401 54.4166 0.81357L54.4058 0.808915L54.3951 0.803752C54.3266 0.770454 54.2701 0.744119 54.2184 0.724L54.2104 0.720919L54.2026 0.717571C54.1884 0.711453 54.1794 0.708372 54.1617 0.702245C54.1481 0.697527 54.1293 0.691003 54.0987 0.679896L54.094 0.678188L54.094 0.678165C54.0421 0.658679 53.9869 0.640231 53.9302 0.622994C53.8904 0.611246 53.8474 0.600457 53.8028 0.5909L53.7945 0.589125L53.7863 0.58707L53.7727 0.583657C53.7182 0.570018 53.6862 0.562026 53.6537 0.556212L53.6407 0.553897L53.6408 0.553727C53.6065 0.546671 53.5769 0.542531 53.5329 0.536387C53.5145 0.53382 53.4937 0.530903 53.4689 0.527277L53.4598 0.526087C53.4168 0.520462 53.3881 0.516713 53.3583 0.514121L53.3506 0.513451L53.3506 0.513391C53.296 0.507789 53.2383 0.505984 53.1578 0.50396C53.1562 0.503921 53.1547 0.503881 53.1531 0.503842L53.1656 0.00399781C53.1506 0.00399781 53.1361 0.00299836 53.1216 0.0019989C53.1071 0.000999452 53.0926 0 53.0776 0C53.0726 0 53.0676 0.000499726 53.0626 0.000999452C53.0576 0.00149918 53.0526 0.0019989 53.0476 0.0019989C52.9716 0.0019989 52.8936 0.00799842 52.8176 0.0139984L77.3456 19.7225ZM77.3456 19.7225V20.438V24.77C77.3456 27.0002 79.1535 28.808 81.3836 28.808C83.6138 28.808 85.4216 27.0002 85.4216 24.77C85.4216 23.0922 86.7818 21.732 88.4596 21.732C90.1374 21.732 91.4979 23.0922 91.4996 24.7705C91.4994 30.3582 86.9713 34.886 81.3836 34.886C75.7958 34.886 71.2676 30.356 71.2676 24.77V16.968V16.6677L71.0025 16.5267L56.8485 8.99264L56.1136 8.60145V9.43401V14.154V14.654H56.6136H60.1516C65.7395 14.654 70.2676 19.1822 70.2676 24.77C70.2676 30.358 65.7413 34.886 60.1536 34.886C54.5658 34.886 50.0376 30.356 50.0376 24.77V21.232V20.732H49.5376H47.7676H38.9302L38.9185 20.7304C38.9146 20.7298 38.9094 20.7291 38.9035 20.7283C38.8981 20.7275 38.892 20.7267 38.8856 20.7259L38.8612 20.7228L38.8366 20.7222C37.1963 20.6793 35.8796 19.3377 35.8796 17.688C35.8796 16.0277 37.212 14.6794 38.8659 14.6519L38.8664 13.6521C37.2116 13.6229 35.8796 12.2759 35.8796 10.616C35.8796 8.38587 34.0717 6.57801 31.8416 6.57801C29.6114 6.57801 27.8035 8.38587 27.8035 10.616V17.692C27.8035 19.3699 26.4434 20.73 24.7655 20.73C23.0877 20.73 21.7275 19.3699 21.7275 17.692V10.616C21.7275 5.02821 26.2576 0.5 31.8436 0.5C37.4314 0.5 41.9596 5.03009 41.9596 10.616C41.9596 12.2764 40.6271 13.6246 38.9733 13.6521L38.9318 14.6495C38.951 14.6515 38.9957 14.656 39.0436 14.656H47.7676H48.6576H49.5416H50.0416V14.156V3.54292C50.0417 3.54148 50.0419 3.53777 50.0424 3.53043C50.0432 3.5193 50.0452 3.49156 50.0455 3.45978C50.0476 3.37928 50.0494 3.32163 50.055 3.26702L50.055 3.26702L50.0557 3.25932C50.0583 3.22948 50.062 3.20076 50.0677 3.15767L50.0689 3.14864M77.3456 19.7225L50.0689 3.14864M49.9456 1.896C49.9753 1.83654 50.0096 1.78014 50.0445 1.72278C50.0495 1.71455 50.0546 1.70629 50.0596 1.698C50.0816 1.66 50.1036 1.622 50.1276 1.586L49.8956 2.004C49.8991 1.99579 49.9024 1.98758 49.9058 1.97941C49.9138 1.95975 49.9217 1.94038 49.9316 1.922C49.934 1.91585 49.9373 1.91046 49.9403 1.90536C49.9422 1.90216 49.944 1.89908 49.9456 1.896ZM49.9456 1.896L50.2616 2.05401L50.3912 2.11879L50.165 2.68604C50.1648 2.68651 50.1647 2.68698 50.1646 2.68745M49.9456 1.896L50.2615 2.05395L50.3912 2.11881C50.3864 2.12982 50.382 2.13889 50.3784 2.14571C50.3755 2.15134 50.3729 2.15592 50.3713 2.15876C50.3704 2.1603 50.3698 2.16134 50.3696 2.16176C50.3693 2.16225 50.369 2.16265 50.3699 2.16116L50.3713 2.15878L50.3739 2.15437L50.3816 2.1408L50.3749 2.15341M50.3749 2.15341C50.3773 2.14767 50.3759 2.15152 50.3718 2.15905L50.3749 2.15341ZM50.3749 2.15341C50.3746 2.15392 50.3744 2.1545 50.3741 2.15516L50.3672 2.17194C50.3643 2.17926 50.36 2.18968 50.3552 2.20095L50.3505 2.21182L50.3453 2.22245C50.312 2.29103 50.2857 2.3475 50.2656 2.39922L50.2624 2.40734L50.2624 2.40732C50.254 2.42782 50.2485 2.44323 50.2399 2.46755C50.2351 2.48109 50.2293 2.4974 50.2215 2.51888L50.2198 2.52357L50.2197 2.52356C50.2003 2.57554 50.1818 2.63067 50.1646 2.68745M50.1646 2.68745C50.1528 2.72722 50.142 2.77016 50.1325 2.81478L50.1307 2.82306L50.1286 2.83127L50.1252 2.845C50.1116 2.89946 50.1036 2.93136 50.0978 2.9639L50.0955 2.97686L50.0953 2.97683C50.0882 3.01112 50.0841 3.04076 50.078 3.08476C50.0754 3.1031 50.0725 3.12394 50.0689 3.14864M50.1646 2.68745L50.0689 3.14864M50.3817 2.14064C50.3848 2.13501 50.3887 2.12789 50.3928 2.11961M50.3817 2.14064L50.3928 2.11961M50.3817 2.14064L50.3853 2.13405L50.3913 2.11889L50.3928 2.11961M50.3817 2.14064L50.3928 2.11961M50.4923 1.94851C50.5151 1.90919 50.5291 1.8853 50.5425 1.86506L50.3928 2.1196C50.4127 2.07987 50.4355 2.04231 50.4717 1.98265C50.4766 1.97458 50.4818 1.9661 50.4872 1.95716L50.4873 1.95721L50.4923 1.94851ZM52.8594 0.512251C52.9368 0.506155 52.9949 0.501999 53.0476 0.501999C53.0629 0.501999 53.0761 0.501385 53.086 0.500736L52.8594 0.512251ZM84.9538 12.5014L84.954 12.501C85.2707 11.8995 85.4216 11.2534 85.4216 10.616C85.4216 8.38587 83.6138 6.57801 81.3836 6.57801C79.3228 6.57801 77.6225 8.1218 77.3763 10.116H77.3436V10.616V12.724V13.0219L77.6056 13.1637L79.4936 14.1858L79.4982 14.1882C81.4706 15.2292 83.913 14.4735 84.9538 12.5014ZM56.6156 20.732H56.1156V21.232V24.77C56.1156 27.0002 57.9234 28.808 60.1536 28.808C62.3837 28.808 64.1916 27.0002 64.1916 24.77C64.1916 22.5399 62.3837 20.732 60.1536 20.732H56.6156Z" fill="white" stroke="#5839F0"/>
<path d="M3.53742 20.7179C1.91787 20.7179 0.599414 19.3995 0.599414 17.7799C0.599414 16.1604 1.91787 14.8419 3.53742 14.8419C5.15696 14.8419 6.47542 16.1604 6.47542 17.7799C6.47542 19.3995 5.15696 20.7179 3.53742 20.7179Z" fill="white" stroke="#5839F0" stroke-width="0.4"/>
<path d="M6.47601 17.7799C6.47601 16.1595 5.15846 14.8419 3.538 14.8419C1.91755 14.8419 0.600001 16.1595 0.600001 17.7799C0.600001 19.4004 1.91755 20.718 3.538 20.718C5.15846 20.718 6.47601 19.4004 6.47601 17.7799ZM0.2 17.7799C0.2 15.9364 1.69446 14.4419 3.538 14.4419C5.38155 14.4419 6.87601 15.9364 6.87601 17.7799C6.87601 19.6235 5.38155 21.118 3.538 21.118C1.69446 21.118 0.2 19.6235 0.2 17.7799Z" fill="white" stroke="#5839F0" stroke-width="0.4"/>
<path d="M24.7689 20.632C23.1493 20.632 21.8309 19.3135 21.8309 17.694C21.8309 16.0744 23.1493 14.756 24.7689 14.756C26.3884 14.756 27.7069 16.0744 27.7069 17.694C27.7069 19.3136 26.3903 20.632 24.7689 20.632Z" fill="white" stroke="#5839F0" stroke-width="0.4"/>
<path d="M27.7065 17.6939C27.7065 16.0735 26.3889 14.7559 24.7685 14.7559C23.148 14.7559 21.8305 16.0735 21.8305 17.6939C21.8305 19.3144 23.148 20.632 24.7685 20.632C26.3889 20.632 27.7065 19.3144 27.7065 17.6939ZM21.4305 17.6939C21.4305 15.8504 22.9249 14.3559 24.7685 14.3559C26.6139 14.3559 28.1065 15.8503 28.1065 17.6939C28.1065 19.5375 26.612 21.032 24.7685 21.032C22.9249 21.032 21.4305 19.5375 21.4305 17.6939Z" fill="white" stroke="#5839F0" stroke-width="0.4"/>
<path d="M38.9212 20.632C37.3017 20.632 35.9832 19.3135 35.9832 17.694C35.9832 16.0744 37.3017 14.756 38.9212 14.756C40.5408 14.756 41.8592 16.0744 41.8592 17.694C41.8592 19.3136 40.5427 20.632 38.9212 20.632Z" fill="white" stroke="#5839F0" stroke-width="0.4"/>
<path d="M42.2598 17.6937V17.6939C42.2598 19.5375 40.7653 21.032 38.9218 21.032C37.0782 21.032 35.5838 19.5375 35.5838 17.6939C35.5838 15.8504 37.0782 14.3559 38.9218 14.3559C40.7675 14.3559 42.2617 15.8505 42.2598 17.6937ZM41.8598 17.6939C41.8598 16.0735 40.5423 14.7559 38.9218 14.7559C37.3013 14.7559 35.9838 16.0735 35.9838 17.6939C35.9838 19.3144 37.3013 20.632 38.9218 20.632C40.5423 20.632 41.8598 19.3144 41.8598 17.6939Z" fill="white" stroke="#5839F0" stroke-width="0.4"/>
</svg>
