<svg width="61" height="24" viewBox="0 0 61 24" fill="none" xmlns="http://www.w3.org/2000/svg">
<path d="M25.5323 14.7148C24.2505 14.7148 23.2114 15.7539 23.2114 17.0357V21.6775C23.2114 22.9593 24.2505 23.9984 25.5323 23.9984C26.8141 23.9984 27.8532 22.9593 27.8532 21.6775V17.0357C27.8545 15.7539 26.8154 14.7148 25.5323 14.7148Z" fill="#5839F0"/>
<path d="M13.9269 17.0356C13.9269 18.3174 12.8878 19.3565 11.606 19.3565C10.3242 19.3565 9.28509 18.3174 9.28509 17.0356V3.10897C9.28509 1.82717 8.246 0.788086 6.9642 0.788086C5.6824 0.788086 4.64331 1.82717 4.64331 3.10897V17.0356C4.64331 20.881 7.76057 23.9996 11.6073 23.9996C15.454 23.9996 18.5713 20.8823 18.5713 17.0356C18.5713 15.7538 17.5322 14.7147 16.2504 14.7147C14.9686 14.7147 13.9269 15.7538 13.9269 17.0356Z" fill="#5839F0"/>
<path d="M58.0287 14.7151C56.7469 14.7151 55.7078 15.7541 55.7078 17.0359C55.7078 18.3178 54.6687 19.3568 53.3869 19.3568C52.1051 19.3568 51.0661 18.3178 51.0661 17.0359V14.1942C51.8795 14.492 52.7126 14.7151 53.3869 14.7151C57.2323 14.7151 60.3509 11.5978 60.3509 7.75109C60.3509 3.90437 57.2337 0.787109 53.3869 0.787109C49.8984 0.787109 47.0094 3.35334 46.503 6.70019L36.6068 1.4326L35.9363 1.07443C35.9272 1.06918 35.9193 1.06525 35.9101 1.06L35.8799 1.04294C35.8629 1.03376 35.8445 1.0272 35.8261 1.01933C35.7802 0.997024 35.733 0.974721 35.6857 0.956354C35.6582 0.944546 35.6293 0.935363 35.6005 0.924867C35.5585 0.909124 35.5152 0.894692 35.4719 0.881572C35.4365 0.871076 35.3997 0.861891 35.363 0.854019C35.3263 0.844836 35.2908 0.835651 35.2541 0.829092C35.2095 0.819908 35.1649 0.814661 35.1203 0.808101C35.0901 0.804166 35.0612 0.800229 35.0311 0.797605C34.9799 0.792358 34.9287 0.791044 34.8763 0.789732C34.8566 0.789732 34.8382 0.787109 34.8185 0.787109C34.812 0.787109 34.8054 0.788421 34.7989 0.788421C34.749 0.788421 34.6978 0.792356 34.648 0.796292C34.6191 0.798916 34.5902 0.798917 34.5627 0.802852C34.5233 0.806788 34.484 0.81466 34.4446 0.82122C34.4066 0.82778 34.3698 0.831716 34.3318 0.839588C34.3055 0.844836 34.2806 0.852709 34.2544 0.859269C34.2058 0.871076 34.1573 0.882883 34.1101 0.898626C34.0956 0.902562 34.0825 0.909123 34.0681 0.914371C34.0117 0.934051 33.9552 0.95373 33.9001 0.977346C33.8857 0.983906 33.8726 0.990465 33.8595 0.997025C33.8057 1.02064 33.7532 1.04557 33.702 1.07312C33.6692 1.09018 33.6391 1.11117 33.6076 1.13085C33.5761 1.14921 33.5446 1.16758 33.5144 1.18726C33.4659 1.22006 33.42 1.25548 33.374 1.29222C33.3622 1.3014 33.3504 1.30928 33.3386 1.31977C33.2927 1.35782 33.2481 1.3998 33.2048 1.44178C33.1943 1.45228 33.1838 1.46146 33.1733 1.47065C33.1379 1.50607 33.1051 1.54412 33.0723 1.58217C33.0552 1.60185 33.0369 1.62021 33.0211 1.63989C32.9975 1.66876 32.9752 1.70025 32.9529 1.73173C32.9293 1.76322 32.9057 1.79471 32.8834 1.82751C32.8676 1.85112 32.8532 1.87605 32.8388 1.90098C32.8125 1.94427 32.7863 1.98626 32.764 2.03086C32.7614 2.03611 32.7574 2.04136 32.7548 2.04792C32.7456 2.06498 32.739 2.08334 32.7312 2.10171C32.7089 2.14763 32.6866 2.19486 32.6682 2.24209C32.6564 2.27096 32.6472 2.29851 32.6367 2.32737C32.621 2.36935 32.6065 2.41265 32.5934 2.45594C32.5829 2.49137 32.5737 2.5281 32.5659 2.56484C32.5567 2.60157 32.5475 2.637 32.5409 2.67373C32.5318 2.71834 32.5265 2.76295 32.5199 2.80755C32.516 2.83773 32.5121 2.86659 32.5095 2.89677C32.5042 2.94794 32.5029 2.9991 32.5016 3.05158C32.5016 3.07126 32.499 3.08963 32.499 3.10931V10.0733H31.9191H31.3352H25.6124C25.5993 10.0733 25.5848 10.072 25.5717 10.0707C26.8352 10.0497 27.8532 9.01977 27.8532 7.75109C27.8532 3.90568 24.736 0.787109 20.8893 0.787109C17.0439 0.787109 13.9253 3.90437 13.9253 7.75109V12.3929C13.9253 13.6747 14.9644 14.7137 16.2462 14.7137C17.528 14.7137 18.5671 13.6747 18.5671 12.3929V7.75109C18.5671 6.46928 19.6062 5.4302 20.888 5.4302C22.1698 5.4302 23.2088 6.46928 23.2088 7.75109C23.2088 9.01977 24.2269 10.0484 25.4904 10.0707C24.2269 10.0917 23.2088 11.1216 23.2088 12.3902C23.2088 13.651 24.2151 14.6757 25.4681 14.7085C25.4891 14.7111 25.5087 14.7151 25.5297 14.7151H31.3352H32.4963V17.0359C32.4963 20.8814 35.6136 23.9999 39.4603 23.9999C43.307 23.9999 46.423 20.8827 46.423 17.0359C46.423 13.1892 43.3057 10.072 39.459 10.072H37.1381V6.97571L46.423 11.9179V17.0359C46.423 20.8814 49.5402 23.9999 53.3869 23.9999C57.2337 23.9999 60.3509 20.8827 60.3509 17.0359C60.3496 15.7541 59.3105 14.7151 58.0287 14.7151ZM51.0661 7.75109C51.0661 6.46928 52.1051 5.4302 53.3869 5.4302C54.6687 5.4302 55.7078 6.46928 55.7078 7.75109C55.7078 8.11713 55.6212 8.48842 55.4389 8.83478C54.8406 9.96833 53.4368 10.4026 52.3033 9.80433L51.0648 9.13391V7.75109H51.0661ZM39.4603 14.7151C40.7421 14.7151 41.7812 15.7541 41.7812 17.0359C41.7812 18.3178 40.7421 19.3568 39.4603 19.3568C38.1785 19.3568 37.1394 18.3178 37.1394 17.0359V14.7151H39.4603Z" fill="#5839F0"/>
<path d="M25.5323 13.9277C24.2505 13.9277 23.2114 14.9668 23.2114 16.2486V20.8904C23.2114 22.1722 24.2505 23.2113 25.5323 23.2113C26.8141 23.2113 27.8532 22.1722 27.8532 20.8904V16.2486C27.8545 14.9668 26.8154 13.9277 25.5323 13.9277Z" fill="white"/>
<path d="M13.9269 16.2485C13.9269 17.5303 12.8878 18.5694 11.606 18.5694C10.3242 18.5694 9.28509 17.5303 9.28509 16.2485V2.32186C9.28509 1.04006 8.246 0.000976562 6.9642 0.000976562C5.6824 0.000976562 4.64331 1.04006 4.64331 2.32186V16.2485C4.64331 20.0939 7.76057 23.2125 11.6073 23.2125C15.454 23.2125 18.5713 20.0952 18.5713 16.2485C18.5713 14.9667 17.5322 13.9276 16.2504 13.9276C14.9686 13.9276 13.9269 14.9667 13.9269 16.2485Z" fill="white"/>
<path d="M58.0287 13.928C56.7469 13.928 55.7078 14.967 55.7078 16.2488C55.7078 17.5306 54.6687 18.5697 53.3869 18.5697C52.1051 18.5697 51.0661 17.5306 51.0661 16.2488V13.4071C51.8795 13.7049 52.7126 13.928 53.3869 13.928C57.2323 13.928 60.3509 10.8107 60.3509 6.96398C60.3509 3.11726 57.2337 0 53.3869 0C49.8984 0 47.0094 2.56623 46.503 5.91308L36.6068 0.645493L35.9363 0.287323C35.9272 0.282075 35.9193 0.278139 35.9101 0.272892L35.8799 0.255835C35.8629 0.246651 35.8445 0.24009 35.8261 0.232219C35.7802 0.209915 35.733 0.187612 35.6857 0.169244C35.6582 0.157436 35.6293 0.148254 35.6005 0.137758C35.5585 0.122014 35.5152 0.107582 35.4719 0.0944625C35.4365 0.0839667 35.3997 0.074782 35.363 0.0669101C35.3263 0.0577263 35.2908 0.0485421 35.2541 0.0419822C35.2095 0.0327984 35.1649 0.027552 35.1203 0.0209921C35.0901 0.0170562 35.0612 0.01312 35.0311 0.0104961C34.9799 0.00524815 34.9287 0.00393449 34.8763 0.00262251C34.8566 0.00262251 34.8382 0 34.8185 0C34.812 0 34.8054 0.00131126 34.7989 0.00131126C34.749 0.00131126 34.6978 0.00524687 34.648 0.0091828C34.6191 0.0118068 34.5902 0.0118072 34.5627 0.0157431C34.5233 0.019679 34.484 0.0275508 34.4446 0.0341107C34.4066 0.0406706 34.3698 0.0446064 34.3318 0.0524783C34.3055 0.0577262 34.2806 0.0655993 34.2544 0.0721592C34.2058 0.083967 34.1573 0.0957731 34.1101 0.111517C34.0956 0.115453 34.0825 0.122014 34.0681 0.127262C34.0117 0.146942 33.9552 0.166621 33.9001 0.190236C33.8857 0.196796 33.8726 0.203355 33.8595 0.209915C33.8057 0.233531 33.7532 0.258459 33.702 0.28601C33.6692 0.303066 33.6391 0.324058 33.6076 0.343737C33.5761 0.362105 33.5446 0.380474 33.5144 0.400153C33.4659 0.432953 33.42 0.468375 33.374 0.50511C33.3622 0.514294 33.3504 0.522167 33.3386 0.532662C33.2927 0.57071 33.2481 0.612692 33.2048 0.654675C33.1943 0.665171 33.1838 0.674355 33.1733 0.683539C33.1379 0.718962 33.1051 0.757011 33.0723 0.795058C33.0552 0.814738 33.0369 0.833106 33.0211 0.852785C32.9975 0.881649 32.9752 0.913136 32.9529 0.944623C32.9293 0.976111 32.9057 1.0076 32.8834 1.0404C32.8676 1.06401 32.8532 1.08894 32.8388 1.11387C32.8125 1.15716 32.7863 1.19915 32.764 1.24375C32.7614 1.249 32.7574 1.25425 32.7548 1.26081C32.7456 1.27787 32.739 1.29623 32.7312 1.3146C32.7089 1.36052 32.6866 1.40775 32.6682 1.45498C32.6564 1.48385 32.6472 1.5114 32.6367 1.54026C32.621 1.58224 32.6065 1.62554 32.5934 1.66884C32.5829 1.70426 32.5737 1.74099 32.5659 1.77773C32.5567 1.81447 32.5475 1.84989 32.5409 1.88662C32.5318 1.93123 32.5265 1.97584 32.5199 2.02044C32.516 2.05062 32.5121 2.07948 32.5095 2.10966C32.5042 2.16083 32.5029 2.21199 32.5016 2.26447C32.5016 2.28415 32.499 2.30252 32.499 2.3222V9.28618H31.9191H31.3352H25.6124C25.5993 9.28618 25.5848 9.28486 25.5717 9.28355C26.8352 9.26256 27.8532 8.23266 27.8532 6.96398C27.8532 3.11857 24.736 0 20.8893 0C17.0439 0 13.9253 3.11726 13.9253 6.96398V11.6058C13.9253 12.8876 14.9644 13.9266 16.2462 13.9266C17.528 13.9266 18.5671 12.8876 18.5671 11.6058V6.96398C18.5671 5.68217 19.6062 4.64309 20.888 4.64309C22.1698 4.64309 23.2088 5.68217 23.2088 6.96398C23.2088 8.23266 24.2269 9.26125 25.4904 9.28355C24.2269 9.30454 23.2088 10.3344 23.2088 11.6031C23.2088 12.8639 24.2151 13.8886 25.4681 13.9214C25.4891 13.924 25.5087 13.928 25.5297 13.928H31.3352H32.4963V16.2488C32.4963 20.0942 35.6136 23.2128 39.4603 23.2128C43.307 23.2128 46.423 20.0956 46.423 16.2488C46.423 12.4021 43.3057 9.28486 39.459 9.28486H37.1381V6.1886L46.423 11.1308V16.2488C46.423 20.0942 49.5402 23.2128 53.3869 23.2128C57.2337 23.2128 60.3509 20.0956 60.3509 16.2488C60.3496 14.967 59.3105 13.928 58.0287 13.928ZM51.0661 6.96398C51.0661 5.68217 52.1051 4.64309 53.3869 4.64309C54.6687 4.64309 55.7078 5.68217 55.7078 6.96398C55.7078 7.33002 55.6212 7.70131 55.4389 8.04767C54.8406 9.18122 53.4368 9.61548 52.3033 9.01722L51.0648 8.3468V6.96398H51.0661ZM39.4603 13.928C40.7421 13.928 41.7812 14.967 41.7812 16.2488C41.7812 17.5306 40.7421 18.5697 39.4603 18.5697C38.1785 18.5697 37.1394 17.5306 37.1394 16.2488V13.928H39.4603Z" fill="white"/>
<path d="M2.3207 13.7215C1.18584 13.7215 0.262207 12.7978 0.262207 11.663C0.262207 10.5281 1.18584 9.60449 2.3207 9.60449C3.45556 9.60449 4.37919 10.5281 4.37919 11.663C4.37919 12.7978 3.45556 13.7215 2.3207 13.7215Z" fill="#5839F0"/>
<path d="M2.32089 9.86708C3.31143 9.86708 4.11699 10.6726 4.11699 11.6632C4.11699 12.6537 3.31143 13.4593 2.32089 13.4593C1.33035 13.4593 0.524791 12.6537 0.524791 11.6632C0.524791 10.6726 1.33035 9.86708 2.32089 9.86708ZM2.32089 9.34229C1.03909 9.34229 0 10.3814 0 11.6632C0 12.945 1.03909 13.9841 2.32089 13.9841C3.60269 13.9841 4.64178 12.945 4.64178 11.6632C4.64178 10.3814 3.60269 9.34229 2.32089 9.34229Z" fill="white"/>
<path d="M16.2475 18.3069C17.3843 18.3069 18.306 17.3853 18.306 16.2484C18.306 15.1116 17.3843 14.1899 16.2475 14.1899C15.1106 14.1899 14.189 15.1116 14.189 16.2484C14.189 17.3853 15.1106 18.3069 16.2475 18.3069Z" fill="#5839F0"/>
<path d="M16.2476 14.4525C17.2382 14.4525 18.0437 15.2581 18.0437 16.2486C18.0437 17.2392 17.2382 18.0447 16.2476 18.0447C15.2571 18.0447 14.4515 17.2392 14.4515 16.2486C14.4515 15.2581 15.2571 14.4525 16.2476 14.4525ZM16.2476 13.9277C14.9658 13.9277 13.9268 14.9668 13.9268 16.2486C13.9268 17.5304 14.9658 18.5695 16.2476 18.5695C17.5294 18.5695 18.5685 17.5304 18.5685 16.2486C18.5698 14.9668 17.5308 13.9277 16.2476 13.9277Z" fill="white"/>
<path d="M6.96401 4.38017C5.82915 4.38017 4.90552 3.45654 4.90552 2.32168C4.90552 1.18682 5.82915 0.263184 6.96401 0.263184C8.09887 0.263184 9.0225 1.18682 9.0225 2.32168C9.0225 3.45654 8.09887 4.38017 6.96401 4.38017Z" fill="#5839F0"/>
<path d="M6.9642 0.525768C7.95474 0.525768 8.7603 1.33132 8.7603 2.32186C8.7603 3.31241 7.95474 4.11796 6.9642 4.11796C5.97366 4.11796 5.1681 3.31241 5.1681 2.32186C5.1681 1.33132 5.97366 0.525768 6.9642 0.525768ZM6.9642 0.000976562C5.6824 0.000976562 4.64331 1.04006 4.64331 2.32186C4.64331 3.60367 5.6824 4.64275 6.9642 4.64275C8.246 4.64275 9.28509 3.60367 9.28509 2.32186C9.28509 1.04006 8.246 0.000976562 6.9642 0.000976562Z" fill="white"/>
<path d="M25.5324 22.95C24.3975 22.95 23.4739 22.0264 23.4739 20.8915C23.4739 19.7566 24.3975 18.833 25.5324 18.833C26.6672 18.833 27.5909 19.7566 27.5909 20.8915C27.5909 22.0264 26.6685 22.95 25.5324 22.95Z" fill="#5839F0"/>
<path d="M25.5326 19.0956C26.5231 19.0956 27.3287 19.9011 27.3287 20.8917C27.3287 21.8822 26.5231 22.6878 25.5326 22.6878C24.542 22.6878 23.7365 21.8822 23.7365 20.8917C23.7365 19.9011 24.542 19.0956 25.5326 19.0956ZM25.5326 18.5708C24.2508 18.5708 23.2117 19.6099 23.2117 20.8917C23.2117 22.1735 24.2508 23.2126 25.5326 23.2126C26.8144 23.2126 27.8534 22.1735 27.8534 20.8917C27.8548 19.6099 26.8157 18.5708 25.5326 18.5708Z" fill="white"/>
<path d="M25.5324 9.02372C24.3975 9.02372 23.4739 8.10009 23.4739 6.96523C23.4739 5.83037 24.3975 4.90674 25.5324 4.90674C26.6672 4.90674 27.5909 5.83037 27.5909 6.96523C27.5909 8.10009 26.6685 9.02372 25.5324 9.02372Z" fill="#5839F0"/>
<path d="M25.5326 5.16786C26.5231 5.16786 27.3287 5.97341 27.3287 6.96395C27.3287 7.9545 26.5231 8.76005 25.5326 8.76005C24.542 8.76005 23.7365 7.9545 23.7365 6.96395C23.7365 5.97341 24.542 5.16786 25.5326 5.16786ZM25.5326 4.64307C24.2508 4.64307 23.2117 5.68215 23.2117 6.96395C23.2117 8.24576 24.2508 9.28484 25.5326 9.28484C26.8144 9.28484 27.8534 8.24576 27.8534 6.96395C27.8548 5.68215 26.8157 4.64307 25.5326 4.64307Z" fill="white"/>
<path d="M16.2475 13.6653C15.1126 13.6653 14.189 12.7417 14.189 11.6068C14.189 10.472 15.1126 9.54834 16.2475 9.54834C17.3823 9.54834 18.3059 10.472 18.3059 11.6068C18.3059 12.7417 17.3836 13.6653 16.2475 13.6653Z" fill="#5839F0"/>
<path d="M16.2476 9.81092C17.2382 9.81092 18.0437 10.6165 18.0437 11.607C18.0437 12.5976 17.2382 13.4031 16.2476 13.4031C15.2571 13.4031 14.4515 12.5976 14.4515 11.607C14.4515 10.6165 15.2571 9.81092 16.2476 9.81092ZM16.2476 9.28613C14.9658 9.28613 13.9268 10.3252 13.9268 11.607C13.9268 12.8888 14.9658 13.9279 16.2476 13.9279C17.5294 13.9279 18.5685 12.8888 18.5685 11.607C18.5685 10.3252 17.5308 9.28613 16.2476 9.28613Z" fill="white"/>
<path d="M25.5324 13.6653C24.3975 13.6653 23.4739 12.7417 23.4739 11.6068C23.4739 10.472 24.3975 9.54834 25.5324 9.54834C26.6672 9.54834 27.5909 10.472 27.5909 11.6068C27.5909 12.7417 26.6685 13.6653 25.5324 13.6653Z" fill="#5839F0"/>
<path d="M25.5326 9.81092C26.5231 9.81092 27.3287 10.6165 27.3287 11.607C27.3287 12.5976 26.5231 13.4031 25.5326 13.4031C24.542 13.4031 23.7365 12.5976 23.7365 11.607C23.7365 10.6165 24.542 9.81092 25.5326 9.81092ZM25.5326 9.28613C24.2508 9.28613 23.2117 10.3252 23.2117 11.607C23.2117 12.8888 24.2508 13.9279 25.5326 13.9279C26.8144 13.9279 27.8534 12.8888 27.8534 11.607C27.8548 10.3252 26.8157 9.28613 25.5326 9.28613Z" fill="white"/>
<path d="M58.0287 18.3069C56.8938 18.3069 55.9702 17.3833 55.9702 16.2484C55.9702 15.1136 56.8938 14.1899 58.0287 14.1899C59.1636 14.1899 60.0872 15.1136 60.0872 16.2484C60.0872 17.3833 59.1636 18.3069 58.0287 18.3069Z" fill="#5839F0"/>
<path d="M58.0289 14.4525C59.0194 14.4525 59.825 15.2581 59.825 16.2486C59.825 17.2392 59.0194 18.0447 58.0289 18.0447C57.0384 18.0447 56.2328 17.2392 56.2328 16.2486C56.2328 15.2581 57.0384 14.4525 58.0289 14.4525ZM58.0289 13.9277C56.7471 13.9277 55.708 14.9668 55.708 16.2486C55.708 17.5304 56.7471 18.5695 58.0289 18.5695C59.3107 18.5695 60.3498 17.5304 60.3498 16.2486C60.3498 14.9668 59.3107 13.9277 58.0289 13.9277Z" fill="white"/>
<path d="M57.3566 12.687C56.2309 13.4703 54.8625 13.9281 53.3866 13.9281C52.7122 13.9281 51.8791 13.7051 51.0657 13.4073V8.34698L52.3042 9.0174C52.9851 9.37688 53.7644 9.36376 54.4073 9.0502C54.835 8.8416 55.2023 8.50048 55.4411 8.04785L57.3566 12.687Z" fill="url(#paint0_linear_2987_36984)"/>
<path d="M46.4149 6.96422C46.4149 6.60736 46.4424 6.25707 46.4936 5.91464L36.5973 0.64705L35.8692 0.258705C34.7291 -0.326437 33.3292 0.122259 32.7441 1.26237C32.1589 2.40248 32.6076 3.80236 33.7477 4.3875L34.5546 4.81914L46.4149 11.1324V6.96422Z" fill="url(#paint1_linear_2987_36984)"/>
<path d="M37.1381 13.9282H32.4963V16.6309H37.1381V13.9282Z" fill="url(#paint2_linear_2987_36984)"/>
<path d="M37.1381 2.32235C37.1381 1.04055 36.099 0.00146484 34.8172 0.00146484C33.5354 0.00146484 32.4963 1.04055 32.4963 2.32235V9.28633H37.1381V2.32235Z" fill="url(#paint3_linear_2987_36984)"/>
<defs>
<linearGradient id="paint0_linear_2987_36984" x1="49.8294" y1="10.9881" x2="57.3396" y2="10.9881" gradientUnits="userSpaceOnUse">
<stop stop-color="#5F5C70" stop-opacity="0.2"/>
<stop offset="0.00703507" stop-color="#676477" stop-opacity="0.2078"/>
<stop offset="0.0442" stop-color="#8A8897" stop-opacity="0.2491"/>
<stop offset="0.086" stop-color="#AAA8B3" stop-opacity="0.2955"/>
<stop offset="0.1323" stop-color="#C5C4CB" stop-opacity="0.3469"/>
<stop offset="0.1845" stop-color="#DADADE" stop-opacity="0.4049"/>
<stop offset="0.2455" stop-color="#EBEBED" stop-opacity="0.4726"/>
<stop offset="0.3209" stop-color="#F6F6F7" stop-opacity="0.5564"/>
<stop offset="0.4267" stop-color="#FDFDFD" stop-opacity="0.6738"/>
<stop offset="0.7203" stop-color="white"/>
</linearGradient>
<linearGradient id="paint1_linear_2987_36984" x1="33.5464" y1="5.56626" x2="47.5525" y2="5.56626" gradientUnits="userSpaceOnUse">
<stop offset="0.6161" stop-color="white"/>
<stop offset="0.7638" stop-color="#FDFDFD" stop-opacity="0.6538"/>
<stop offset="0.8212" stop-color="#F6F6F7" stop-opacity="0.5192"/>
<stop offset="0.8629" stop-color="#EAEAED" stop-opacity="0.4215"/>
<stop offset="0.8969" stop-color="#D9D9DD" stop-opacity="0.3416"/>
<stop offset="0.9264" stop-color="#C3C2CA" stop-opacity="0.2726"/>
<stop offset="0.9526" stop-color="#A8A7B1" stop-opacity="0.2112"/>
<stop offset="0.9763" stop-color="#888695" stop-opacity="0.1556"/>
<stop offset="0.9976" stop-color="#646174" stop-opacity="0.1057"/>
<stop offset="1" stop-color="#5F5C70" stop-opacity="0.1"/>
</linearGradient>
<linearGradient id="paint2_linear_2987_36984" x1="34.8175" y1="15.4539" x2="34.8175" y2="12.7513" gradientUnits="userSpaceOnUse">
<stop offset="0.1123" stop-color="white" stop-opacity="0.9622"/>
<stop offset="0.2519" stop-color="#FBFBFB" stop-opacity="0.9682"/>
<stop offset="0.3912" stop-color="#EFEFF1" stop-opacity="0.9741"/>
<stop offset="0.5304" stop-color="#DCDBDF" stop-opacity="0.98"/>
<stop offset="0.6697" stop-color="#C0BFC7" stop-opacity="0.9859"/>
<stop offset="0.809" stop-color="#9D9BA7" stop-opacity="0.9919"/>
<stop offset="0.9466" stop-color="#726F81" stop-opacity="0.9977"/>
<stop offset="1" stop-color="#5F5C70"/>
</linearGradient>
<linearGradient id="paint3_linear_2987_36984" x1="34.8175" y1="1.25663" x2="34.8175" y2="10.5412" gradientUnits="userSpaceOnUse">
<stop offset="0.6673" stop-color="white"/>
<stop offset="0.7613" stop-color="#FDFDFD" stop-opacity="0.7951"/>
<stop offset="0.8115" stop-color="#F5F5F6" stop-opacity="0.6857"/>
<stop offset="0.8514" stop-color="#E8E7EA" stop-opacity="0.5988"/>
<stop offset="0.8858" stop-color="#D5D4D9" stop-opacity="0.5237"/>
<stop offset="0.9167" stop-color="#BCBBC3" stop-opacity="0.4563"/>
<stop offset="0.9451" stop-color="#9E9CA8" stop-opacity="0.3943"/>
<stop offset="0.9711" stop-color="#7B7889" stop-opacity="0.3378"/>
<stop offset="0.9884" stop-color="#5F5C70" stop-opacity="0.3"/>
</linearGradient>
</defs>
</svg>
