<svg width="92" height="36" viewBox="0 0 92 36" fill="none" xmlns="http://www.w3.org/2000/svg">
<path d="M41.9603 24.7697V24.7702V31.8462C41.9603 33.5241 40.6001 34.8842 38.9223 34.8842C37.2444 34.8842 35.8843 33.5241 35.8843 31.8462V24.7702C35.8843 23.0923 37.2444 21.7322 38.9223 21.7322C40.6024 21.7322 41.962 23.0925 41.9603 24.7697Z" fill="white" stroke="#5839F0"/>
<path d="M17.6921 28.808C19.9223 28.808 21.7301 27.0001 21.7301 24.77C21.7301 23.0929 23.0936 21.732 24.7722 21.732C26.45 21.732 27.8102 23.0921 27.8102 24.77C27.8102 30.3579 23.282 34.886 17.6941 34.886C12.1063 34.886 7.57812 30.3559 7.57812 24.77V3.53996C7.57812 1.8621 8.93827 0.501953 10.6161 0.501953C12.294 0.501953 13.6541 1.8621 13.6541 3.53996V24.77C13.6541 27.0001 15.462 28.808 17.6921 28.808Z" fill="white" stroke="#5839F0"/>
<path d="M77.3461 19.7225L78.018 19.9685C79.2443 20.4175 80.4467 20.732 81.3841 20.732C86.97 20.732 91.5001 16.2038 91.5001 10.616C91.5001 5.02815 86.972 0.5 81.3841 0.5C76.3171 0.5 72.12 4.22751 71.3845 9.08882L71.2788 9.78732L70.6552 9.45538L55.5691 1.42537L55.5685 1.42501L54.5465 0.87901L54.5402 0.875655L54.534 0.872122L54.525 0.867239C54.5193 0.864131 54.5079 0.858063 54.4952 0.850776C54.4948 0.850559 54.4944 0.850341 54.494 0.850122L54.4629 0.832535L54.4628 0.83249L54.4461 0.825652C54.4388 0.822666 54.4284 0.818401 54.4171 0.81357L54.4062 0.808915L54.3956 0.803752C54.3271 0.770454 54.2706 0.744119 54.2188 0.724L54.2109 0.720919L54.2031 0.717571C54.1888 0.711453 54.1799 0.708372 54.1622 0.702245C54.1486 0.697527 54.1297 0.691003 54.0992 0.679896L54.0945 0.678188L54.0945 0.678165C54.0425 0.658679 53.9874 0.640231 53.9307 0.622994C53.8909 0.611246 53.8479 0.600457 53.8033 0.5909L53.795 0.589125L53.7868 0.58707L53.7732 0.583657C53.7187 0.570018 53.6867 0.562026 53.6542 0.556212L53.6412 0.553897L53.6412 0.553727C53.607 0.546671 53.5774 0.542531 53.5334 0.536387C53.515 0.53382 53.4942 0.530903 53.4694 0.527277L53.4603 0.526087C53.4173 0.520462 53.3886 0.516713 53.3588 0.514121L53.3511 0.513451L53.3511 0.513391C53.2964 0.507789 53.2388 0.505984 53.1583 0.50396C53.1567 0.503921 53.1552 0.503881 53.1536 0.503842L53.1661 0.00399781C53.1511 0.00399781 53.1366 0.00299836 53.1221 0.0019989C53.1076 0.000999452 53.0931 0 53.0781 0C53.0731 0 53.0681 0.000499726 53.0631 0.000999452C53.0581 0.00149918 53.0531 0.0019989 53.0481 0.0019989C52.9721 0.0019989 52.8941 0.00799842 52.8181 0.0139984L77.3461 19.7225ZM77.3461 19.7225V20.438V24.77C77.3461 27.0002 79.154 28.808 81.3841 28.808C83.6142 28.808 85.4221 27.0002 85.4221 24.77C85.4221 23.0922 86.7823 21.732 88.4601 21.732C90.1379 21.732 91.4984 23.0922 91.5001 24.7705C91.4998 30.3582 86.9718 34.886 81.3841 34.886C75.7963 34.886 71.2681 30.356 71.2681 24.77V16.968V16.6677L71.003 16.5267L56.849 8.99264L56.1141 8.60145V9.43401V14.154V14.654H56.6141H60.1521C65.7399 14.654 70.2681 19.1822 70.2681 24.77C70.2681 30.358 65.7418 34.886 60.1541 34.886C54.5663 34.886 50.0381 30.356 50.0381 24.77V21.232V20.732H49.5381H47.7681H38.9307L38.919 20.7304C38.9151 20.7298 38.9099 20.7291 38.904 20.7283C38.8986 20.7275 38.8924 20.7267 38.8861 20.7259L38.8617 20.7228L38.8371 20.7222C37.1968 20.6793 35.88 19.3377 35.88 17.688C35.88 16.0277 37.2125 14.6794 38.8664 14.6519L38.8669 13.6521C37.2121 13.6229 35.88 12.2759 35.88 10.616C35.88 8.38587 34.0722 6.57801 31.842 6.57801C29.6119 6.57801 27.804 8.38587 27.804 10.616V17.692C27.804 19.3699 26.4439 20.73 24.766 20.73C23.0882 20.73 21.728 19.3699 21.728 17.692V10.616C21.728 5.02821 26.2581 0.5 31.844 0.5C37.4318 0.5 41.9601 5.03009 41.9601 10.616C41.9601 12.2764 40.6276 13.6246 38.9737 13.6521L38.9323 14.6495C38.9515 14.6515 38.9962 14.656 39.0441 14.656H47.7681H48.6581H49.5421H50.0421V14.156V3.54292C50.0422 3.54148 50.0424 3.53777 50.0429 3.53043C50.0436 3.5193 50.0457 3.49156 50.046 3.45978C50.0481 3.37928 50.0499 3.32163 50.0555 3.26702L50.0555 3.26702L50.0562 3.25932C50.0588 3.22948 50.0625 3.20076 50.0682 3.15767L50.0693 3.14864M77.3461 19.7225L50.0693 3.14864M49.9461 1.896C49.9758 1.83654 50.0101 1.78014 50.045 1.72278C50.05 1.71455 50.055 1.70629 50.0601 1.698C50.0821 1.66 50.1041 1.622 50.1281 1.586L49.8961 2.004C49.8996 1.99579 49.9029 1.98758 49.9063 1.97941C49.9143 1.95975 49.9222 1.94038 49.9321 1.922C49.9345 1.91585 49.9377 1.91046 49.9408 1.90536C49.9427 1.90216 49.9445 1.89908 49.9461 1.896ZM49.9461 1.896L50.2621 2.05401L50.3917 2.11879L50.1655 2.68604C50.1653 2.68651 50.1652 2.68698 50.165 2.68745M49.9461 1.896L50.262 2.05395L50.3917 2.11881C50.3869 2.12982 50.3824 2.13889 50.3789 2.14571C50.376 2.15134 50.3734 2.15592 50.3718 2.15876C50.3709 2.1603 50.3703 2.16134 50.37 2.16176C50.3697 2.16225 50.3695 2.16265 50.3704 2.16116L50.3718 2.15878L50.3744 2.15437L50.3821 2.1408L50.3753 2.15341M50.3753 2.15341C50.3778 2.14767 50.3764 2.15152 50.3723 2.15905L50.3753 2.15341ZM50.3753 2.15341C50.3751 2.15392 50.3749 2.1545 50.3746 2.15516L50.3677 2.17194C50.3647 2.17926 50.3605 2.18968 50.3556 2.20095L50.351 2.21182L50.3458 2.22245C50.3125 2.29103 50.2862 2.3475 50.2661 2.39922L50.2629 2.40734L50.2628 2.40732C50.2545 2.42782 50.249 2.44323 50.2404 2.46755C50.2356 2.48109 50.2298 2.4974 50.222 2.51888L50.2203 2.52357L50.2202 2.52356C50.2007 2.57554 50.1823 2.63067 50.165 2.68745M50.165 2.68745C50.1533 2.72722 50.1425 2.77016 50.133 2.81478L50.1312 2.82306L50.1291 2.83127L50.1257 2.845C50.1121 2.89946 50.1041 2.93136 50.0983 2.9639L50.096 2.97686L50.0958 2.97683C50.0887 3.01112 50.0846 3.04076 50.0784 3.08476C50.0759 3.1031 50.073 3.12394 50.0693 3.14864M50.165 2.68745L50.0693 3.14864M50.3822 2.14064C50.3853 2.13501 50.3891 2.12789 50.3933 2.11961M50.3822 2.14064L50.3933 2.11961M50.3822 2.14064L50.3858 2.13405L50.3918 2.11889L50.3933 2.11961M50.3822 2.14064L50.3933 2.11961M50.4928 1.94851C50.5155 1.90919 50.5296 1.8853 50.543 1.86506L50.3933 2.1196C50.4132 2.07987 50.436 2.04231 50.4722 1.98265C50.4771 1.97458 50.4822 1.9661 50.4877 1.95716L50.4877 1.95721L50.4928 1.94851ZM52.8599 0.512251C52.9372 0.506155 52.9954 0.501999 53.0481 0.501999C53.0633 0.501999 53.0765 0.501385 53.0865 0.500736L52.8599 0.512251ZM84.9543 12.5014L84.9545 12.501C85.2712 11.8995 85.4221 11.2534 85.4221 10.616C85.4221 8.38587 83.6142 6.57801 81.3841 6.57801C79.3233 6.57801 77.623 8.1218 77.3768 10.116H77.3441V10.616V12.724V13.0219L77.6061 13.1637L79.4941 14.1858L79.4987 14.1882C81.4711 15.2292 83.9135 14.4735 84.9543 12.5014ZM56.6161 20.732H56.1161V21.232V24.77C56.1161 27.0002 57.9239 28.808 60.1541 28.808C62.3842 28.808 64.1921 27.0002 64.1921 24.77C64.1921 22.5399 62.3842 20.732 60.1541 20.732H56.6161Z" fill="white" stroke="#5839F0"/>
<path d="M3.53791 20.7179C1.91836 20.7179 0.599902 19.3994 0.599902 17.7799C0.599902 16.1603 1.91836 14.8418 3.53791 14.8418C5.15745 14.8418 6.47591 16.1603 6.47591 17.7799C6.47591 19.3994 5.15745 20.7179 3.53791 20.7179Z" fill="white" stroke="#5839F0" strokeWidth="0.4"/>
<path d="M6.47601 17.7799C6.47601 16.1595 5.15846 14.8419 3.538 14.8419C1.91755 14.8419 0.600001 16.1595 0.600001 17.7799C0.600001 19.4004 1.91755 20.718 3.538 20.718C5.15846 20.718 6.47601 19.4004 6.47601 17.7799ZM0.2 17.7799C0.2 15.9364 1.69446 14.4419 3.538 14.4419C5.38155 14.4419 6.87601 15.9364 6.87601 17.7799C6.87601 19.6235 5.38155 21.118 3.538 21.118C1.69446 21.118 0.2 19.6235 0.2 17.7799Z" fill="white" stroke="#5839F0" strokeWidth="0.4"/>
<path d="M24.7679 20.6322C23.1483 20.6322 21.8299 19.3137 21.8299 17.6942C21.8299 16.0746 23.1483 14.7562 24.7679 14.7562C26.3874 14.7562 27.7059 16.0746 27.7059 17.6942C27.7059 19.3138 26.3893 20.6322 24.7679 20.6322Z" fill="white" stroke="#5839F0" strokeWidth="0.4"/>
<path d="M27.706 17.694C27.706 16.0736 26.3884 14.756 24.768 14.756C23.1475 14.756 21.83 16.0736 21.83 17.694C21.83 19.3145 23.1475 20.632 24.768 20.632C26.3884 20.632 27.706 19.3145 27.706 17.694ZM21.43 17.694C21.43 15.8505 22.9244 14.356 24.768 14.356C26.6135 14.356 28.106 15.8504 28.106 17.694C28.106 19.5376 26.6115 21.032 24.768 21.032C22.9244 21.032 21.43 19.5376 21.43 17.694Z" fill="white" stroke="#5839F0" strokeWidth="0.4"/>
<path d="M38.9222 20.6322C37.3026 20.6322 35.9842 19.3137 35.9842 17.6942C35.9842 16.0746 37.3026 14.7562 38.9222 14.7562C40.5417 14.7562 41.8602 16.0746 41.8602 17.6942C41.8602 19.3138 40.5436 20.6322 38.9222 20.6322Z" fill="white" stroke="#5839F0" strokeWidth="0.4"/>
<path d="M42.2603 17.6938V17.694C42.2603 19.5376 40.7658 21.032 38.9223 21.032C37.0787 21.032 35.5843 19.5376 35.5843 17.694C35.5843 15.8505 37.0787 14.356 38.9223 14.356C40.7679 14.356 42.2622 15.8505 42.2603 17.6938ZM41.8603 17.694C41.8603 16.0736 40.5427 14.756 38.9223 14.756C37.3018 14.756 35.9843 16.0736 35.9843 17.694C35.9843 19.3145 37.3018 20.632 38.9223 20.632C40.5427 20.632 41.8603 19.3145 41.8603 17.694Z" fill="white" stroke="#5839F0" strokeWidth="0.4"/>
</svg>
