<svg width="12" height="12" viewBox="0 0 12 12" fill="none" xmlns="http://www.w3.org/2000/svg">
<path d="M6 1.06227C8.70996 1.06227 10.9177 2.97436 10.9177 5.31136C10.9177 7.64836 8.70996 9.56044 6 9.56044C5.44424 9.57014 4.89086 9.4868 4.36364 9.314L3.71429 9.09305L3.22944 9.56894C2.69461 10.0592 2.11497 10.5001 1.49784 10.8862C1.47801 10.8916 1.45705 10.8916 1.43723 10.8862V10.8352C1.89451 9.66835 1.94023 8.38477 1.5671 7.18945C1.27634 6.61809 1.11395 5.99212 1.09091 5.35385C1.09091 2.99985 3.2987 1.10476 6.00866 1.10476M6 0C2.68398 0 0 2.38799 0 5.32835C0.0195538 6.10643 0.208487 6.87139 0.554112 7.57187C0.828222 8.54839 0.773559 9.58569 0.398268 10.5292C0.323967 10.752 0.322632 10.992 0.394452 11.2156C0.466272 11.4391 0.607637 11.635 0.79869 11.7756C0.989744 11.9163 1.22089 11.9947 1.45965 11.9997C1.69841 12.0048 1.93279 11.9364 2.12987 11.804C2.79754 11.3772 3.42358 10.8907 4 10.3508C4.64359 10.5657 5.32031 10.6692 6 10.6567C9.31602 10.6567 12 8.26872 12 5.32835C12 2.38799 9.31602 0 6 0Z" fill="#5B5D72"/>
<path d="M3.90005 6C4.23142 6 4.50005 5.74816 4.50005 5.4375C4.50005 5.12684 4.23142 4.875 3.90005 4.875C3.56868 4.875 3.30005 5.12684 3.30005 5.4375C3.30005 5.74816 3.56868 6 3.90005 6Z" fill="#5B5D72"/>
<path d="M6.00002 6C6.3314 6 6.60002 5.74816 6.60002 5.4375C6.60002 5.12684 6.3314 4.875 6.00002 4.875C5.66865 4.875 5.40002 5.12684 5.40002 5.4375C5.40002 5.74816 5.66865 6 6.00002 6Z" fill="#5B5D72"/>
<path d="M8.1 6C8.43137 6 8.7 5.74816 8.7 5.4375C8.7 5.12684 8.43137 4.875 8.1 4.875C7.76863 4.875 7.5 5.12684 7.5 5.4375C7.5 5.74816 7.76863 6 8.1 6Z" fill="#5B5D72"/>
</svg>
