<svg width="12" height="12" viewBox="0 0 12 12" fill="none" xmlns="http://www.w3.org/2000/svg">
<path d="M6.05634 9.84507C6.95775 9.03756 7.62441 8.42723 8.05634 8.01408C8.48826 7.60094 8.95775 7.11268 9.46479 6.5493C9.97183 5.98592 10.3192 5.48826 10.507 5.05634C10.7136 4.62441 10.8169 4.20188 10.8169 3.78873C10.8169 3.18779 10.6103 2.69014 10.1972 2.29577C9.80282 1.90141 9.30516 1.70423 8.70423 1.70423C8.23474 1.70423 7.79343 1.83568 7.38028 2.09859C6.98592 2.3615 6.71361 2.69953 6.56338 3.11268H5.43662C5.28639 2.69953 5.00469 2.3615 4.59155 2.09859C4.19718 1.83568 3.76526 1.70423 3.29577 1.70423C2.69484 1.70423 2.18779 1.90141 1.77465 2.29577C1.38028 2.69014 1.1831 3.18779 1.1831 3.78873C1.1831 4.20188 1.277 4.62441 1.46479 5.05634C1.67136 5.48826 2.02817 5.98592 2.53521 6.5493C3.04225 7.11268 3.51174 7.60094 3.94366 8.01408C4.37559 8.42723 5.04225 9.03756 5.94366 9.84507L6 9.90141L6.05634 9.84507ZM8.70423 0.492958C9.64319 0.492958 10.4225 0.812206 11.0423 1.4507C11.6808 2.0892 12 2.86854 12 3.78873C12 4.33333 11.8967 4.86854 11.6901 5.39437C11.4836 5.90141 11.0986 6.47418 10.5352 7.11268C9.99061 7.75117 9.49296 8.28639 9.04225 8.71831C8.59155 9.15023 7.86854 9.8169 6.87324 10.7183L6 11.507L5.12676 10.7465C3.83099 9.58216 2.89202 8.70892 2.30986 8.12676C1.74648 7.5446 1.22066 6.85915 0.732394 6.07042C0.244131 5.28169 0 4.52113 0 3.78873C0 2.86854 0.309859 2.0892 0.929577 1.4507C1.56808 0.812206 2.35681 0.492958 3.29577 0.492958C4.38498 0.492958 5.28639 0.915493 6 1.76056C6.71361 0.915493 7.61502 0.492958 8.70423 0.492958Z" fill="#5B5D72"/>
</svg>
