<svg width="12" height="12" viewBox="0 0 12 12" fill="none" xmlns="http://www.w3.org/2000/svg">
<path fill-rule="evenodd" clip-rule="evenodd" d="M6 5.99999C4.6701 5.99999 3.58858 4.92359 3.58858 3.59999C3.58858 2.27639 4.6701 1.19999 6 1.19999C7.32991 1.19999 8.41143 2.27639 8.41143 3.59999C8.41143 4.92359 7.32991 5.99999 6 5.99999ZM8.26554 6.40378C9.22227 5.63758 9.77992 4.39856 9.57495 3.04196C9.33682 1.46816 8.02138 0.20879 6.43346 0.0251899C4.24207 -0.22861 2.38286 1.46939 2.38286 3.59999C2.38286 4.73399 2.91096 5.74438 3.73447 6.40378C1.71128 7.16038 0.234278 8.93699 0.00278044 11.3346C-0.0309792 11.6892 0.24694 12 0.605037 12C0.911891 12 1.17353 11.7696 1.20066 11.4654C1.44241 8.7876 3.50237 7.2 6 7.2C8.49764 7.2 10.5576 8.7876 10.7993 11.4654C10.8265 11.7696 11.0881 12 11.395 12C11.7531 12 12.031 11.6892 11.9972 11.3346C11.7657 8.93699 10.2887 7.16038 8.26554 6.40378Z" fill="#5B5D72"/>
</svg>
