<svg width="12" height="12" viewBox="0 0 12 12" fill="none" xmlns="http://www.w3.org/2000/svg">
<path fill-rule="evenodd" clip-rule="evenodd" d="M4.66667 1.33334C2.82572 1.33334 1.33334 2.82572 1.33334 4.66667C1.33334 6.50761 2.82572 8.00001 4.66667 8.00001C5.58734 8.00001 6.41974 7.62768 7.02368 7.02368C7.62768 6.41974 8.00001 5.58734 8.00001 4.66667C8.00001 2.82572 6.50761 1.33334 4.66667 1.33334ZM0 4.66667C0 2.08934 2.08934 0 4.66667 0C7.24401 0 9.33335 2.08934 9.33335 4.66667C9.33335 5.71461 8.98735 6.68261 8.40421 7.46141L11.8047 10.8619C12.0651 11.1223 12.0651 11.5444 11.8047 11.8047C11.5444 12.0651 11.1223 12.0651 10.8619 11.8047L7.46141 8.40421C6.68261 8.98735 5.71461 9.33335 4.66667 9.33335C2.08934 9.33335 0 7.24401 0 4.66667Z" fill="#3B4CDC"/>
</svg>
