<svg width="36" height="36" viewBox="0 0 36 36" fill="none" xmlns="http://www.w3.org/2000/svg">
<path fillRule="evenodd" clipRule="evenodd" d="M12.0001 17.996C11.1717 17.996 10.5001 17.4467 10.5001 16.7691V5.72693C10.5001 5.04933 11.1717 4.50002 12.0001 4.50002C12.8285 4.50002 13.5001 5.04933 13.5001 5.72693V16.7691C13.5001 17.4467 12.8285 17.996 12.0001 17.996Z" fill="#3B4CDC"/>
<path fillRule="evenodd" clipRule="evenodd" d="M24 31.5C23.1716 31.5 22.5 30.9962 22.5 30.3747V19.1214C22.5 18.4999 23.1716 17.996 24 17.996C24.8284 17.996 25.5 18.4999 25.5 19.1214V30.3747C25.5 30.9962 24.8284 31.5 24 31.5Z" fill="#3B4CDC"/>
<path fillRule="evenodd" clipRule="evenodd" d="M12 22.5C10.3431 22.5 9 23.8431 9 25.5C9 27.1569 10.3431 28.5 12 28.5C13.6569 28.5 15 27.1569 15 25.5C15 23.8431 13.6569 22.5 12 22.5ZM6 25.5C6 22.1863 8.68629 19.5 12 19.5C15.3137 19.5 18 22.1863 18 25.5C18 28.8137 15.3137 31.5 12 31.5C8.68629 31.5 6 28.8137 6 25.5Z" fill="#3B4CDC"/>
<path fillRule="evenodd" clipRule="evenodd" d="M24 7.5C22.3431 7.5 21 8.84315 21 10.5C21 12.1569 22.3431 13.5 24 13.5C25.6569 13.5 27 12.1569 27 10.5C27 8.84315 25.6569 7.5 24 7.5ZM18 10.5C18 7.18629 20.6863 4.5 24 4.5C27.3137 4.5 30 7.18629 30 10.5C30 13.8137 27.3137 16.5 24 16.5C20.6863 16.5 18 13.8137 18 10.5Z" fill="#3B4CDC"/>
</svg>
