<svg width="16" height="17" viewBox="0 0 16 17" fill="none" xmlns="http://www.w3.org/2000/svg">
<path d="M12.0188 11.278L9.12676 8.38599L12.0188 5.49397L10.892 4.36721L8 7.25923L5.10798 4.36721L3.98122 5.49397L6.87324 8.38599L3.98122 11.278L5.10798 12.4048L8 9.51275L10.892 12.4048L12.0188 11.278ZM2.32864 2.75218C3.9061 1.17472 5.79656 0.385986 8 0.385986C10.2034 0.385986 12.0814 1.17472 13.6338 2.75218C15.2113 4.30461 16 6.18254 16 8.38599C16 10.5894 15.2113 12.4799 13.6338 14.0573C12.0814 15.6098 10.2034 16.386 8 16.386C5.79656 16.386 3.9061 15.6098 2.32864 14.0573C0.776213 12.4799 0 10.5894 0 8.38599C0 6.18254 0.776213 4.30461 2.32864 2.75218Z" fill="#46464F"/>
</svg>
