<svg width="47" height="16" viewBox="0 0 47 16" fill="none" xmlns="http://www.w3.org/2000/svg">
<path d="M43.0188 10.892L40.1268 8L43.0188 5.10798L41.892 3.98122L39 6.87324L36.108 3.98122L34.9812 5.10798L37.8732 8L34.9812 10.892L36.108 12.0188L39 9.12676L41.892 12.0188L43.0188 10.892ZM33.3286 2.3662C34.9061 0.788732 36.7966 0 39 0C41.2034 0 43.0814 0.788732 44.6338 2.3662C46.2113 3.91862 47 5.79656 47 8C47 10.2034 46.2113 12.0939 44.6338 13.6714C43.0814 15.2238 41.2034 16 39 16C36.7966 16 34.9061 15.2238 33.3286 13.6714C31.7762 12.0939 31 10.2034 31 8C31 5.79656 31.7762 3.91862 33.3286 2.3662Z" fill="#46464F"/>
</svg>
