<svg width="13" height="20" viewBox="0 0 13 20" fill="none" xmlns="http://www.w3.org/2000/svg">
<path d="M6.71558 0.573242C3.24388 0.573242 0.431152 3.52961 0.431152 7.17278C0.431152 10.816 6.71558 19.4265 6.71558 19.4265C6.71558 19.4265 13 10.8151 13 7.17278C13 3.53051 10.1873 0.573242 6.71558 0.573242Z" fill="#FB3309"/>
<path d="M4.02246 6.85788C4.02246 7.57219 4.30622 8.25725 4.81132 8.76234C5.31641 9.26744 6.00147 9.5512 6.71579 9.5512C7.4301 9.5512 8.11516 9.26744 8.62025 8.76234C9.12535 8.25725 9.40911 7.57219 9.40911 6.85788C9.40911 6.14356 9.12535 5.4585 8.62025 4.95341C8.11516 4.44831 7.4301 4.16455 6.71579 4.16455C6.00147 4.16455 5.31641 4.44831 4.81132 4.95341C4.30622 5.4585 4.02246 6.14356 4.02246 6.85788Z" fill="#FFEED9"/>
</svg>
