<svg width="22" height="21" viewBox="0 0 22 21" fill="none" xmlns="http://www.w3.org/2000/svg">
<path d="M15.1 10.9861L13.65 9.53609C13.8 8.75275 13.575 8.01942 12.975 7.33608C12.375 6.65275 11.6 6.38608 10.65 6.53608L9.2 5.08608C9.48333 4.95275 9.77083 4.85275 10.0625 4.78608C10.3542 4.71942 10.6667 4.68608 11 4.68608C12.25 4.68608 13.3125 5.12358 14.1875 5.99858C15.0625 6.87358 15.5 7.93608 15.5 9.18608C15.5 9.51942 15.4667 9.83192 15.4 10.1236C15.3333 10.4153 15.2333 10.7028 15.1 10.9861ZM18.3 14.1361L16.85 12.7361C17.4833 12.2528 18.0458 11.7236 18.5375 11.1486C19.0292 10.5736 19.45 9.91942 19.8 9.18608C18.9667 7.50275 17.7708 6.16525 16.2125 5.17358C14.6542 4.18192 12.9167 3.68608 11 3.68608C10.5167 3.68608 10.0417 3.71942 9.575 3.78608C9.10833 3.85275 8.65 3.95275 8.2 4.08608L6.65 2.53608C7.33333 2.25275 8.03333 2.04025 8.75 1.89858C9.46667 1.75692 10.2167 1.68608 11 1.68608C13.5167 1.68608 15.7583 2.38192 17.725 3.77358C19.6917 5.16525 21.1167 6.96942 22 9.18608C21.6167 10.1694 21.1125 11.0819 20.4875 11.9236C19.8625 12.7653 19.1333 13.5028 18.3 14.1361ZM18.8 20.2861L14.6 16.1361C14.0167 16.3194 13.4292 16.4569 12.8375 16.5486C12.2458 16.6403 11.6333 16.6861 11 16.6861C8.48333 16.6861 6.24167 15.9903 4.275 14.5986C2.30833 13.2069 0.883333 11.4028 0 9.18608C0.35 8.30275 0.791667 7.48192 1.325 6.72358C1.85833 5.96525 2.46667 5.28608 3.15 4.68608L0.4 1.88608L1.8 0.486084L20.2 18.8861L18.8 20.2861ZM4.55 6.08608C4.06667 6.51942 3.625 6.99442 3.225 7.51108C2.825 8.02775 2.48333 8.58608 2.2 9.18608C3.03333 10.8694 4.22917 12.2069 5.7875 13.1986C7.34583 14.1903 9.08333 14.6861 11 14.6861C11.3333 14.6861 11.6583 14.6653 11.975 14.6236C12.2917 14.5819 12.6167 14.5361 12.95 14.4861L12.05 13.5361C11.8667 13.5861 11.6917 13.6236 11.525 13.6486C11.3583 13.6736 11.1833 13.6861 11 13.6861C9.75 13.6861 8.6875 13.2486 7.8125 12.3736C6.9375 11.4986 6.5 10.4361 6.5 9.18608C6.5 9.00275 6.5125 8.82775 6.5375 8.66109C6.5625 8.49442 6.6 8.31942 6.65 8.13608L4.55 6.08608Z" fill="#79747E"/>
</svg>
