<svg width="17" height="17" viewBox="0 0 17 17" fill="none" xmlns="http://www.w3.org/2000/svg">
<mask id="path-1-inside-1_5085_18206" fill="white">
<path fill-rule="evenodd" clip-rule="evenodd" d="M2.26371 3.27145C1.398 4.1867 0.757969 5.29648 0.40051 6.51234C-0.0321112 7.98386 -0.032601 9.54872 0.399099 11.0205C0.830799 12.4923 1.67649 13.8089 2.83542 14.8136C3.99435 15.8183 5.41767 16.4687 6.93581 16.6872C8.45395 16.9057 10.0029 16.6833 11.3982 16.0463C12.5902 15.502 13.6271 14.6749 14.421 13.6409L15.075 14.4126L15.5757 8.76882L12.3288 13.3355H13.381C12.7236 14.0991 11.9064 14.7149 10.9829 15.1366C9.76201 15.694 8.40667 15.8886 7.0783 15.6974C5.74992 15.5062 4.50452 14.9371 3.49045 14.058C2.47639 13.1789 1.73641 12.0269 1.35867 10.739C0.980935 9.45123 0.981363 8.08198 1.35991 6.7944C1.63375 5.86294 2.09714 5.00263 2.71664 4.26541C2.56807 3.93977 2.41422 3.60221 2.26371 3.27145Z"/>
</mask>
<path fill-rule="evenodd" clip-rule="evenodd" d="M2.26371 3.27145C1.398 4.1867 0.757969 5.29648 0.40051 6.51234C-0.0321112 7.98386 -0.032601 9.54872 0.399099 11.0205C0.830799 12.4923 1.67649 13.8089 2.83542 14.8136C3.99435 15.8183 5.41767 16.4687 6.93581 16.6872C8.45395 16.9057 10.0029 16.6833 11.3982 16.0463C12.5902 15.502 13.6271 14.6749 14.421 13.6409L15.075 14.4126L15.5757 8.76882L12.3288 13.3355H13.381C12.7236 14.0991 11.9064 14.7149 10.9829 15.1366C9.76201 15.694 8.40667 15.8886 7.0783 15.6974C5.74992 15.5062 4.50452 14.9371 3.49045 14.058C2.47639 13.1789 1.73641 12.0269 1.35867 10.739C0.980935 9.45123 0.981363 8.08198 1.35991 6.7944C1.63375 5.86294 2.09714 5.00263 2.71664 4.26541C2.56807 3.93977 2.41422 3.60221 2.26371 3.27145Z" fill="black"/>
<path d="M0.40051 6.51234L1.35991 6.7944L0.40051 6.51234ZM2.26371 3.27145L3.17391 2.85728L2.55842 1.50465L1.53722 2.58428L2.26371 3.27145ZM2.83542 14.8136L3.49045 14.058L3.49045 14.058L2.83542 14.8136ZM6.93581 16.6872L7.0783 15.6974L6.93581 16.6872ZM11.3982 16.0463L11.8135 16.9559L11.3982 16.0463ZM14.421 13.6409L15.1839 12.9944L14.3826 12.0488L13.6278 13.0319L14.421 13.6409ZM15.075 14.4126L14.3121 15.0591L15.8595 16.8852L16.0711 14.501L15.075 14.4126ZM15.5757 8.76882L16.5718 8.8572L16.8977 5.18376L14.7607 8.18936L15.5757 8.76882ZM12.3288 13.3355L11.5138 12.756L10.3908 14.3355H12.3288V13.3355ZM13.381 13.3355L14.1389 13.9878L15.5612 12.3355H13.381V13.3355ZM10.9829 15.1366L11.3982 16.0463L10.9829 15.1366ZM7.0783 15.6974L6.93581 16.6872H6.93581L7.0783 15.6974ZM1.35867 10.739L2.31825 10.4576H2.31824L1.35867 10.739ZM1.35991 6.7944L0.40051 6.51234L0.40051 6.51234L1.35991 6.7944ZM2.71664 4.26541L3.48222 4.90875L3.88865 4.4251L3.62643 3.85033L2.71664 4.26541ZM1.35991 6.7944C1.67268 5.73053 2.23271 4.75947 2.99021 3.95863L1.53722 2.58428C0.563293 3.61394 -0.156743 4.86243 -0.558887 6.23028L1.35991 6.7944ZM1.35867 10.739C0.980935 9.45123 0.981363 8.08198 1.35991 6.7944L-0.558887 6.23028C-1.04559 7.88574 -1.04614 9.6462 -0.560474 11.302L1.35867 10.739ZM3.49045 14.058C2.47639 13.1789 1.73641 12.0269 1.35867 10.739L-0.560474 11.302C-0.0748118 12.9577 0.87659 14.439 2.18039 15.5692L3.49045 14.058ZM7.0783 15.6974C5.74992 15.5062 4.50452 14.9371 3.49045 14.058L2.18039 15.5692C3.48419 16.6995 5.08542 17.4311 6.79333 17.677L7.0783 15.6974ZM10.9829 15.1366C9.76201 15.694 8.40667 15.8886 7.0783 15.6974L6.79333 17.677C8.50124 17.9229 10.2438 17.6726 11.8135 16.9559L10.9829 15.1366ZM13.6278 13.0319C12.9332 13.9366 12.0259 14.6604 10.9829 15.1366L11.8135 16.9559C13.1545 16.3437 14.321 15.4131 15.2142 14.2499L13.6278 13.0319ZM15.8379 13.7661L15.1839 12.9944L13.6581 14.2874L14.3121 15.0591L15.8379 13.7661ZM14.5796 8.68045L14.0789 14.3242L16.0711 14.501L16.5718 8.8572L14.5796 8.68045ZM13.1438 13.9149L16.3907 9.34829L14.7607 8.18936L11.5138 12.756L13.1438 13.9149ZM13.381 12.3355H12.3288V14.3355H13.381V12.3355ZM11.3982 16.0463C12.4537 15.5644 13.3876 14.8606 14.1389 13.9878L12.6231 12.6831C12.0596 13.3377 11.3592 13.8655 10.5676 14.2269L11.3982 16.0463ZM6.93581 16.6872C8.45395 16.9057 10.0029 16.6833 11.3982 16.0463L10.5676 14.2269C9.52111 14.7047 8.35939 14.8715 7.22078 14.7076L6.93581 16.6872ZM2.83542 14.8136C3.99435 15.8183 5.41767 16.4687 6.93581 16.6872L7.22078 14.7076C6.08218 14.5437 5.01469 14.0559 4.14549 13.3024L2.83542 14.8136ZM0.399099 11.0205C0.830799 12.4923 1.67649 13.8089 2.83542 14.8136L4.14549 13.3024C3.27629 12.5489 2.64202 11.5614 2.31825 10.4576L0.399099 11.0205ZM0.40051 6.51234C-0.0321112 7.98386 -0.032601 9.54872 0.399099 11.0205L2.31824 10.4576C1.99447 9.35374 1.99484 8.1801 2.3193 7.07646L0.40051 6.51234ZM1.95106 3.62207C1.24306 4.46459 0.713481 5.4478 0.40051 6.51234L2.3193 7.07646C2.55403 6.27807 2.95121 5.54066 3.48222 4.90875L1.95106 3.62207ZM3.62643 3.85033C3.47796 3.52492 3.32425 3.18767 3.17391 2.85728L1.35352 3.68563C1.50419 4.01675 1.65818 4.35462 1.80686 4.68049L3.62643 3.85033Z" fill="#47464F" mask="url(#path-1-inside-1_5085_18206)"/>
<mask id="path-3-inside-2_5085_18206" fill="white">
<path d="M15.1368 12.5294C14.2233 14.2447 12.7167 15.5689 10.8982 16.2545C9.07982 16.9402 7.074 16.9405 5.25538 16.2554C3.43676 15.5703 1.92971 14.2466 1.0157 12.5315C0.101693 10.8165 -0.156774 8.8274 0.288574 6.93573C0.733922 5.04406 1.85263 3.37917 3.43576 2.25203C5.01889 1.12488 6.95818 0.612545 8.89144 0.810713C10.8247 1.00888 12.6197 1.904 13.9413 3.32889C15.2628 4.75377 16.0205 6.611 16.0728 8.55368L15.0914 8.58011C15.0455 6.87581 14.3808 5.2465 13.2215 3.99646C12.0621 2.74643 10.4874 1.96116 8.79134 1.78731C7.09532 1.61346 5.394 2.06292 4.00514 3.05175C2.61628 4.04058 1.63486 5.50116 1.24416 7.1607C0.853462 8.82024 1.08021 10.5653 1.88206 12.0698C2.68391 13.5744 4.00602 14.7357 5.60147 15.3367C7.19692 15.9378 8.9566 15.9375 10.5519 15.336C12.1471 14.7344 13.4689 13.5728 14.2703 12.068L15.1368 12.5294Z"/>
</mask>
<path d="M15.1368 12.5294C14.2233 14.2447 12.7167 15.5689 10.8982 16.2545C9.07982 16.9402 7.074 16.9405 5.25538 16.2554C3.43676 15.5703 1.92971 14.2466 1.0157 12.5315C0.101693 10.8165 -0.156774 8.8274 0.288574 6.93573C0.733922 5.04406 1.85263 3.37917 3.43576 2.25203C5.01889 1.12488 6.95818 0.612545 8.89144 0.810713C10.8247 1.00888 12.6197 1.904 13.9413 3.32889C15.2628 4.75377 16.0205 6.611 16.0728 8.55368L15.0914 8.58011C15.0455 6.87581 14.3808 5.2465 13.2215 3.99646C12.0621 2.74643 10.4874 1.96116 8.79134 1.78731C7.09532 1.61346 5.394 2.06292 4.00514 3.05175C2.61628 4.04058 1.63486 5.50116 1.24416 7.1607C0.853462 8.82024 1.08021 10.5653 1.88206 12.0698C2.68391 13.5744 4.00602 14.7357 5.60147 15.3367C7.19692 15.9378 8.9566 15.9375 10.5519 15.336C12.1471 14.7344 13.4689 13.5728 14.2703 12.068L15.1368 12.5294Z" stroke="#47464F" stroke-width="2" stroke-dasharray="3 1" mask="url(#path-3-inside-2_5085_18206)"/>
<path d="M6.39917 3.44507L12.8395 5.86057" stroke="#47464F" stroke-linecap="square"/>
<path d="M11.5848 6.86734L8.11102 8.67504L6.68277 5.02879L11.5848 6.86734Z" stroke="#47464F"/>
<path d="M9.75244 14.093L3.31209 11.6775" stroke="#47464F" stroke-linecap="square"/>
<path d="M4.5419 10.737L8.01569 8.92933L9.44394 12.5756L4.5419 10.737Z" fill="#47464F" stroke="#47464F"/>
</svg>
